<svg width="389" height="506" viewBox="0 0 389 506" fill="none" xmlns="http://www.w3.org/2000/svg">
<path d="M71.385 425.418H190.189V390.221H39.1066V501.788C39.1066 503.776 41.178 505.088 42.9751 504.237L62.0496 495.207C62.3177 495.08 62.6035 495.012 62.8923 494.98C63.3964 494.922 63.9068 495.006 64.3726 495.208L88.3353 505.593C89.0362 505.896 89.8322 505.89 90.5279 505.577L113.552 495.178C114.249 494.863 115.048 494.857 115.749 495.163L139.648 505.579C140.365 505.891 141.183 505.879 141.89 505.543L163.685 495.218C164.402 494.879 165.231 494.87 165.954 495.195L186.371 504.356C188.163 505.16 190.189 503.849 190.189 501.884V490.592C190.189 492.557 188.163 493.868 186.371 493.064L168.434 485.014C166.137 483.983 163.504 484.011 161.229 485.089L147.482 491.601C143.221 493.62 138.297 493.697 133.975 491.814L118.437 485.042C116.024 483.991 113.277 484.009 110.878 485.092L98.0859 490.869C92.5765 493.358 86.2722 493.407 80.7246 491.002L64.2846 483.878C63.4565 483.522 62.9202 482.708 62.9202 481.806V433.882C62.9223 429.207 66.7111 425.418 71.385 425.418Z" fill="#F9D266"/>
<path d="M229.296 368.921C229.296 388.688 213.271 404.713 193.503 404.713H35.793C16.0248 404.713 0 388.688 0 368.921V38.7919C0 19.0248 16.0248 3 35.793 3H193.504C213.272 3 229.297 19.0248 229.297 38.7919L229.296 368.921Z" fill="#D6D1D6"/>
<path d="M78.4648 377.5C58.6967 377.5 42.6718 362.144 42.6718 343.202V26.852C42.6718 17.5797 46.5176 9.17288 52.7567 3H35.793C16.0248 3 0 19.0248 0 38.7919V368.921C0 388.688 16.0248 404.713 35.793 404.713H193.504C210.314 404.713 224.41 393.122 228.255 377.499H78.4648V377.5Z" fill="#C7C0C7"/>
<path d="M198.24 66.4172C198.24 63.8012 196.12 61.6812 193.504 61.6812H35.793C33.177 61.6812 31.0559 63.8023 31.0559 66.4182V178.076C31.0559 180.691 33.177 182.813 35.793 182.813H191.502C195.224 182.813 198.24 179.796 198.24 176.075V66.4172Z" fill="#CFEFFC"/>
<path d="M68.5062 160.804C59.324 160.804 51.881 153.361 51.881 144.179V61.6812H35.793C33.177 61.6812 31.0559 63.8023 31.0559 66.4182V178.076C31.0559 180.691 33.177 182.813 35.793 182.813H191.502C195.224 182.813 198.24 179.796 198.24 176.075V160.805H68.5062V160.804Z" fill="#A9E4F9"/>
<path d="M124.657 253.762H104.638C101.014 253.762 98.0776 250.825 98.0776 247.202V230.821C98.0776 227.198 101.014 224.261 104.638 224.261H124.657C128.281 224.261 131.217 227.198 131.217 230.821V247.202C131.217 250.825 128.281 253.762 124.657 253.762Z" fill="#F8F7F8"/>
<path d="M57.6356 253.762H37.616C33.9928 253.762 31.0559 250.825 31.0559 247.202V230.821C31.0559 227.198 33.9928 224.261 37.616 224.261H57.6356C61.2588 224.261 64.1957 227.198 64.1957 230.821V247.202C64.1946 250.825 61.2578 253.762 57.6356 253.762Z" fill="#F8F7F8"/>
<path d="M124.657 312.723H104.638C101.014 312.723 98.0776 309.786 98.0776 306.163V289.782C98.0776 286.158 101.014 283.222 104.638 283.222H124.657C128.281 283.222 131.217 286.158 131.217 289.782V306.163C131.217 309.786 128.281 312.723 124.657 312.723Z" fill="#F8F7F8"/>
<path d="M57.6356 312.723H37.616C33.9928 312.723 31.0559 309.786 31.0559 306.163V289.782C31.0559 286.158 33.9928 283.222 37.616 283.222H57.6356C61.2588 283.222 64.1957 286.158 64.1957 289.782V306.163C64.1946 309.786 61.2578 312.723 57.6356 312.723Z" fill="#F8F7F8"/>
<path d="M171.66 312.723H191.68C195.303 312.723 198.24 309.786 198.24 306.163V289.782C198.24 286.158 195.303 283.222 191.68 283.222H171.66C168.037 283.222 165.1 286.158 165.1 289.782V306.163C165.101 309.786 168.038 312.723 171.66 312.723Z" fill="#D8EFA7"/>
<path d="M124.657 371.683H104.638C101.014 371.683 98.0776 368.746 98.0776 365.123V348.742C98.0776 345.119 101.014 342.182 104.638 342.182H124.657C128.281 342.182 131.217 345.119 131.217 348.742V365.123C131.217 368.746 128.281 371.683 124.657 371.683Z" fill="#F8F7F8"/>
<path d="M57.6356 371.683H37.616C33.9928 371.683 31.0559 368.746 31.0559 365.123V348.742C31.0559 345.119 33.9928 342.182 37.616 342.182H57.6356C61.2588 342.182 64.1957 345.119 64.1957 348.742V365.123C64.1946 368.746 61.2578 371.683 57.6356 371.683Z" fill="#F8F7F8"/>
<path d="M171.66 371.683H191.68C195.303 371.683 198.24 368.746 198.24 365.123V348.742C198.24 345.119 195.303 342.182 191.68 342.182H171.66C168.037 342.182 165.1 345.119 165.1 348.742V365.123C165.101 368.746 168.038 371.683 171.66 371.683Z" fill="#FBE88C"/>
<path d="M359.039 205.635L268.846 47.5269C266.224 42.9311 260.373 41.3308 255.777 43.9525L172.563 91.4229C167.967 94.0446 166.366 99.8956 168.988 104.491L259.182 262.599C261.804 267.195 267.655 268.795 272.25 266.174L355.465 218.703C360.061 216.082 361.661 210.231 359.039 205.635Z" fill="#F9D266"/>
<path d="M247.456 48.6996L347.144 223.45L330.501 232.944L230.813 58.1937L247.456 48.6996Z" fill="#939393"/>
<path d="M189.206 81.9289L179.711 65.2859C178.452 63.079 178.122 60.4622 178.792 58.0114C179.462 55.5606 181.079 53.4764 183.286 52.2174L266.5 4.74704C268.707 3.48805 271.324 3.15734 273.775 3.82768C276.226 4.49801 278.31 6.11447 279.569 8.32146L369.763 166.429C371.022 168.636 371.352 171.253 370.682 173.704C370.012 176.155 368.395 178.239 366.188 179.498L349.545 188.992L268.846 47.527C267.587 45.32 265.503 43.7035 263.052 43.0332C260.601 42.3629 257.984 42.6936 255.777 43.9526L189.206 81.9289Z" fill="#F0AE42"/>
<path d="M263.957 232.301C267.89 239.195 276.666 241.596 283.56 237.663C290.454 233.73 292.854 224.954 288.922 218.06C284.989 211.167 276.213 208.766 269.319 212.699C262.425 216.631 260.025 225.408 263.957 232.301Z" fill="#D5883E"/>
<path d="M223.664 84.3307L242.652 117.617L217.688 131.858L198.7 98.5718L223.664 84.3307Z" fill="#F0AE42"/>
<path d="M253.933 127.725L263.428 144.368L255.106 149.115L245.612 132.472L253.933 127.725Z" fill="#F0AE42"/>
<path d="M268.175 152.69L277.669 169.333L269.347 174.08L259.853 157.437L268.175 152.69Z" fill="#F0AE42"/>
<path d="M282.416 177.654L291.91 194.297L283.588 199.044L274.094 182.401L282.416 177.654Z" fill="#F0AE42"/>
<path d="M290.41 228.345C291.211 224.89 290.701 221.261 288.98 218.16C287.259 215.059 284.449 212.706 281.094 211.557C277.738 210.408 274.076 210.545 270.815 211.94C267.555 213.336 264.928 215.891 263.442 219.112C266.971 222.555 271.221 225.171 275.886 226.768C280.55 228.365 285.512 228.904 290.41 228.345Z" fill="#F3A748"/>
<path d="M223.664 84.3307L198.7 98.5718L202.303 104.888C207.782 109.372 214.117 112.693 220.921 114.649C227.726 116.604 234.857 117.154 241.881 116.264L223.664 84.3307Z" fill="#F6B940"/>
<path d="M364.681 326.807C376.94 320.824 381.588 305.724 374.816 293.883L339.951 232.929L337.874 229.293L326.792 240.312L354.317 331.865L364.681 326.807Z" fill="#F8D3AA"/>
<path d="M326.468 240.634L374.521 322.68L312.304 364.431L309.532 305.032C309.418 302.579 308.725 300.177 307.503 298.045L280.971 251.647C278.952 248.128 278 244.297 278 240.509C278 232.703 282.068 225.126 289.325 220.974C300.101 214.805 313.839 218.542 320.008 229.329L326.468 240.634Z" fill="#FFE6C6"/>
</svg>
