<svg width="44" height="45" viewBox="0 0 44 45" fill="none" xmlns="http://www.w3.org/2000/svg">
<path d="M13.4062 30.231H4.8125C4.33787 30.231 3.95312 30.6158 3.95312 31.0903V42.2622C3.95312 42.7368 4.33787 43.1216 4.8125 43.1216H13.4062C13.8809 43.1216 14.2656 42.7368 14.2656 42.2622V31.0903C14.2656 30.6158 13.8809 30.231 13.4062 30.231ZM12.5469 41.4028H5.67188V31.9497H12.5469V41.4028Z" fill="#FF922E"/>
<path d="M26.2969 24.2153H17.7031C17.2285 24.2153 16.8438 24.6002 16.8438 25.0747V42.2622C16.8438 42.7368 17.2285 43.1216 17.7031 43.1216H26.2969C26.7714 43.1216 27.1562 42.7368 27.1562 42.2622V25.0747C27.1562 24.6002 26.7714 24.2153 26.2969 24.2153ZM25.4375 41.4028H18.5625V25.9341H25.4375V41.4028Z" fill="#FF922E"/>
<path d="M39.1875 14.7622H30.5938C30.1192 14.7622 29.7344 15.1469 29.7344 15.6216V42.2622C29.7344 42.7368 30.1192 43.1216 30.5938 43.1216H39.1875C39.662 43.1216 40.0469 42.7368 40.0469 42.2622V15.6216C40.0469 15.1469 39.662 14.7622 39.1875 14.7622ZM38.3281 41.4028H31.4531V16.481H38.3281V41.4028Z" fill="#FF922E"/>
<path d="M35.75 37.106C36.2245 37.106 36.6094 36.7211 36.6094 36.2466V21.6372C36.6094 21.1626 36.2245 20.7778 35.75 20.7778C35.2755 20.7778 34.8906 21.1626 34.8906 21.6372V36.2466C34.8906 36.7211 35.2755 37.106 35.75 37.106Z" fill="#FF922E"/>
<path d="M4.50362 21.8536L6.47906 23.3512L5.76123 25.724C5.65527 26.0741 5.78263 26.453 6.0786 26.668C6.37456 26.8831 6.77426 26.8871 7.07461 26.6781L9.10935 25.2623L11.1441 26.6783C11.2917 26.781 11.4634 26.8323 11.6349 26.8323C12.2108 26.8323 12.6241 26.2749 12.4575 25.7241L11.7396 23.3513L13.7151 21.8537C14.0067 21.6327 14.1263 21.2513 14.0132 20.9033C13.9001 20.5553 13.5791 20.3171 13.2134 20.3096L10.7349 20.2592L9.92103 17.9177C9.80098 17.5719 9.47519 17.3403 9.10935 17.3403C8.74352 17.3403 8.41773 17.5719 8.29759 17.9176L7.48367 20.2591L5.00524 20.3096C4.63949 20.317 4.31851 20.5553 4.20542 20.9032C4.09241 21.2512 4.21203 21.6326 4.50362 21.8536ZM8.1166 21.9653C8.47599 21.958 8.79285 21.7278 8.91084 21.3882L9.10935 20.8171L9.30787 21.3882C9.42595 21.7278 9.7428 21.9579 10.1021 21.9653L10.7066 21.9776L10.2247 22.3429C9.93831 22.5601 9.81731 22.9325 9.92138 23.2766L10.0964 23.8553L9.60014 23.5099C9.30546 23.3049 8.9141 23.3041 8.61839 23.5099L8.1221 23.8553L8.29716 23.2766C8.40123 22.9325 8.28023 22.5601 7.9938 22.3429L7.51195 21.9776L8.1166 21.9653Z" fill="#FF922E"/>
<path d="M17.3942 15.838L19.3697 17.3356L18.6519 19.7083C18.5459 20.0585 18.6733 20.4373 18.9692 20.6524C19.2652 20.8676 19.665 20.8716 19.9652 20.6626L22 19.2467L24.0348 20.6627C24.1824 20.7654 24.3542 20.8167 24.5257 20.8167C25.1015 20.8167 25.515 20.2593 25.3482 19.7084L24.6304 17.3357L26.6056 15.8381C26.8972 15.617 27.0168 15.2356 26.9038 14.8877C26.7908 14.5397 26.4698 14.3015 26.104 14.294L23.6256 14.2436L22.8116 11.902C22.6916 11.5563 22.3658 11.3247 22 11.3247C21.6341 11.3247 21.3084 11.5563 21.1882 11.9019L20.3743 14.2435L17.8959 14.2939C17.5301 14.3014 17.2091 14.5396 17.096 14.8876C16.983 15.2356 17.1027 15.6169 17.3942 15.838ZM21.0072 15.9497C21.3666 15.9424 21.6835 15.7122 21.8015 15.3726L22.0001 14.8015L22.1987 15.3726C22.3167 15.7122 22.6335 15.9423 22.9928 15.9497L23.5973 15.962L23.1156 16.3272C22.8292 16.5444 22.7082 16.9168 22.8123 17.2609L22.9873 17.8396L22.491 17.4942C22.196 17.289 21.8044 17.2889 21.5093 17.4942L21.013 17.8396L21.188 17.2609C21.2921 16.9169 21.1711 16.5444 20.8847 16.3272L20.4029 15.962L21.0072 15.9497Z" fill="#FF922E"/>
<path d="M30.2849 6.38485L32.2602 7.88248L31.5423 10.2552C31.4364 10.6054 31.5637 10.9842 31.8597 11.1993C32.1557 11.4143 32.5554 11.4184 32.8557 11.2095L34.8906 9.79356L36.9255 11.2096C37.0731 11.3122 37.2448 11.3636 37.4163 11.3636C37.9921 11.3636 38.4056 10.8062 38.2388 10.2553L37.521 7.88257L39.4963 6.38493C39.7879 6.1639 39.9075 5.78251 39.7945 5.43455C39.6815 5.08659 39.3604 4.84837 38.9947 4.84089L36.5162 4.79045L35.7022 2.44891C35.5823 2.10318 35.2565 1.87158 34.8906 1.87158C34.5248 1.87158 34.199 2.10318 34.0789 2.44882L33.2649 4.79036L30.7865 4.84081C30.4208 4.84828 30.0998 5.0865 29.9867 5.43446C29.8736 5.78243 29.9934 6.16382 30.2849 6.38485ZM33.8979 6.49657C34.2573 6.48926 34.574 6.25904 34.692 5.9195L34.8906 5.34836L35.0892 5.9195C35.2072 6.25904 35.5241 6.48918 35.8834 6.49657L36.4879 6.50886L36.0062 6.87409C35.7198 7.09125 35.5988 7.46371 35.7028 7.8078L35.8779 8.3865L35.3816 8.04112C35.0865 7.83582 34.6949 7.83582 34.3998 8.04112L33.9035 8.3865L34.0786 7.8078C34.1827 7.46379 34.0617 7.09125 33.7752 6.87409L33.2936 6.50886L33.8979 6.49657Z" fill="#FF922E"/>
</svg>
