<svg width="512" height="512" viewBox="0 0 512 512" fill="none" xmlns="http://www.w3.org/2000/svg">
<path d="M248 152H264V192H248V152Z" fill="#5B7BC3"/>
<path d="M256 176C251.757 176 247.687 177.686 244.686 180.686C241.686 183.687 240 187.757 240 192V216H272V192C272 187.757 270.314 183.687 267.314 180.686C264.313 177.686 260.243 176 256 176Z" fill="#486CBC"/>
<path d="M384 488C397.657 488 411.181 485.31 423.799 480.084C436.417 474.857 447.882 467.196 457.539 457.539C467.196 447.882 474.857 436.417 480.083 423.799C485.31 411.181 488 397.658 488 384C488 370.343 485.31 356.819 480.083 344.201C474.857 331.583 467.196 320.118 457.539 310.461C447.882 300.804 436.417 293.143 423.799 287.917C411.181 282.69 397.657 280 384 280H280V384C280 397.658 282.69 411.181 287.917 423.799C293.143 436.417 300.804 447.882 310.461 457.539C320.118 467.196 331.583 474.857 344.201 480.084C356.819 485.31 370.343 488 384 488Z" fill="#AAE5CF"/>
<path d="M29.016 352C35.7891 331.078 49.0169 312.84 66.8006 299.905C84.5843 286.969 106.009 280.001 128 280H232V384C232 397.658 229.31 411.181 224.083 423.799C218.857 436.417 211.196 447.882 201.539 457.539C191.882 467.196 180.417 474.857 167.799 480.084C155.181 485.31 141.657 488 128 488C114.343 488 100.819 485.31 88.2009 480.084C75.5831 474.857 64.1182 467.196 54.4609 457.539C44.8036 447.882 37.143 436.417 31.9165 423.799C26.69 411.181 24 397.658 24 384C23.9892 373.137 25.6818 362.339 29.016 352Z" fill="#FFE7B1"/>
<path d="M384 24C397.657 24 411.181 26.69 423.799 31.9165C436.417 37.143 447.882 44.8035 457.539 54.4608C467.196 64.1181 474.857 75.583 480.083 88.2008C485.31 100.819 488 114.342 488 128C488 141.657 485.31 155.181 480.083 167.799C474.857 180.417 467.196 191.882 457.539 201.539C447.882 211.196 436.417 218.857 423.799 224.084C411.181 229.31 397.657 232 384 232H280V128C280 114.342 282.69 100.819 287.917 88.2008C293.143 75.583 300.804 64.1181 310.461 54.4608C320.118 44.8035 331.583 37.143 344.201 31.9165C356.819 26.69 370.343 24 384 24Z" fill="#FFE7B1"/>
<path d="M128 24C114.343 24 100.819 26.69 88.2009 31.9165C75.5831 37.143 64.1182 44.8035 54.4609 54.4608C44.8036 64.1181 37.143 75.583 31.9165 88.2008C26.69 100.819 24 114.342 24 128C24 141.657 26.69 155.181 31.9165 167.799C37.143 180.417 44.8036 191.882 54.4609 201.539C64.1182 211.196 75.5831 218.857 88.2009 224.084C100.819 229.31 114.343 232 128 232H232V128C232 114.342 229.31 100.819 224.083 88.2008C218.857 75.583 211.196 64.1181 201.539 54.4608C191.882 44.8035 180.417 37.143 167.799 31.9165C155.181 26.69 141.657 24 128 24Z" fill="#AAE5CF"/>
<path d="M64 424H192V440H64V424Z" fill="#FFC542"/>
<path d="M168 64H104L88 192H184L168 64Z" fill="#31C292"/>
<path d="M128 160H144V192H128V160Z" fill="#00B378"/>
<path d="M128 112H144V144H128V112Z" fill="#00B378"/>
<path d="M128 64H144V96H128V64Z" fill="#00B378"/>
<path d="M376 48H392V64H376V48Z" fill="#FFD168"/>
<path d="M256 208L192 232L200 248H312L320 232L256 208Z" fill="#5B7BC3"/>
<path d="M200 248H216V304H200V248Z" fill="#486CBC"/>
<path d="M232 248H248V304H232V248Z" fill="#486CBC"/>
<path d="M264 248H280V304H264V248Z" fill="#486CBC"/>
<path d="M296 248H312V304H296V248Z" fill="#486CBC"/>
<path d="M192 296H320V312H192V296Z" fill="#5B7BC3"/>
<path d="M200 336H176L164.422 359.155C163.093 361.813 161.051 364.048 158.523 365.61C155.996 367.173 153.083 368 150.111 368H80C75.7565 368 71.6869 369.686 68.6863 372.686C65.6857 375.687 64 379.757 64 384C64 388.243 65.6857 392.313 68.6863 395.314C71.6869 398.314 75.7565 400 80 400H171.508C175.076 400 178.542 398.807 181.354 396.611C184.167 394.415 186.164 391.342 187.03 387.881L200 336Z" fill="#FFD168"/>
<path d="M120 320L96 368H136L144 320H120Z" fill="#FFC542"/>
<path d="M344 328H424V384H344V328Z" fill="#00B378"/>
<path d="M376 304H392V328H376V304Z" fill="#00B378"/>
<path d="M420.529 424C433.014 411.14 439.998 393.923 440 376L384 360L328 376C328.002 393.923 334.986 411.14 347.471 424H420.529Z" fill="#31C292"/>
<path d="M384 424V360L328 376C328.002 393.923 334.986 411.14 347.471 424H384Z" fill="#70D6B1"/>
<path d="M448 440C436.686 440 430.707 434.022 426.342 429.657C422.418 425.734 420.494 424 415.996 424C411.499 424 409.575 425.734 405.653 429.657C401.288 434.021 395.31 440 383.996 440C372.683 440 366.705 434.021 362.34 429.656C358.418 425.734 356.494 424 351.998 424C347.502 424 345.578 425.734 341.656 429.656C337.291 434.021 331.313 440 320 440V424C324.496 424 326.42 422.266 330.342 418.344C334.707 413.979 340.685 408 351.998 408C363.312 408 369.289 413.979 373.654 418.344C377.576 422.266 379.5 424 383.996 424C388.493 424 390.417 422.266 394.339 418.343C398.704 413.979 404.683 408 415.996 408C427.311 408 433.289 413.978 437.654 418.343C441.578 422.266 443.502 424 448 424V440Z" fill="#00B378"/>
<path d="M336 320H432V336H336V320Z" fill="#31C292"/>
<path d="M416.308 202.198L431.692 197.802L407.178 112H390.537L406.537 168H361.463L377.463 112H360.822L336.308 197.802L351.692 202.198L356.892 184H411.108L416.308 202.198Z" fill="#FFC542"/>
<path d="M408 64H360C351.163 64 344 71.1634 344 80V128C344 136.837 351.163 144 360 144H408C416.837 144 424 136.837 424 128V80C424 71.1634 416.837 64 408 64Z" fill="#FFC542"/>
<path d="M344 112H424V128C424 132.243 422.314 136.313 419.314 139.314C416.313 142.314 412.243 144 408 144H360C355.757 144 351.687 142.314 348.686 139.314C345.686 136.313 344 132.243 344 128V112Z" fill="#FFD168"/>
</svg>
