<svg width="512" height="512" viewBox="0 0 512 512" fill="none" xmlns="http://www.w3.org/2000/svg">
<g clip-path="url(#clip0_113_45)">
<path d="M380.661 2.072V501.656C380.661 507.368 376.03 511.999 370.318 511.999H56.654C50.942 511.999 46.311 507.368 46.311 501.656V2.073C46.311 0.367998 48.257 -0.605002 49.621 0.417998L67.965 14.177C71.643 16.936 76.7 16.936 80.378 14.177L95.825 2.591C99.503 -0.167002 104.56 -0.167002 108.237 2.591L123.685 14.178C127.363 16.937 132.42 16.936 136.098 14.177L151.542 2.592C155.22 -0.167002 160.277 -0.167002 163.955 2.592L179.401 14.178C183.079 16.937 188.136 16.937 191.814 14.178L207.262 2.591C210.94 -0.167002 215.996 -0.168002 219.674 2.591L235.125 14.179C238.803 16.937 243.859 16.937 247.537 14.179L262.99 2.59C266.668 -0.168002 271.724 -0.168002 275.402 2.59L290.854 14.179C294.532 16.937 299.588 16.937 303.266 14.179L318.72 2.59C322.397 -0.168002 327.453 -0.168002 331.131 2.59L346.589 14.181C350.266 16.938 355.322 16.938 358.999 14.181L377.353 0.418998C378.715 -0.605002 380.661 0.367998 380.661 2.072Z" fill="#EAEAEA"/>
<path d="M361.854 12.038V512H370.318C376.03 512 380.661 507.369 380.661 501.657V2.07201C380.661 0.367006 378.715 -0.605994 377.351 0.417006L361.854 12.038Z" fill="#CBCBCB"/>
<path d="M455.69 512H120.442C114.919 512 110.442 507.523 110.442 502V313.031C110.442 307.508 114.919 303.031 120.442 303.031H455.69C461.213 303.031 465.69 307.508 465.69 313.031V502C465.69 507.523 461.212 512 455.69 512Z" fill="#7FD061"/>
<path d="M419.194 450.354C410.827 450.354 404.044 457.137 404.044 465.504C404.044 473.871 397.261 480.654 388.894 480.654H188.283C179.916 480.654 173.133 473.871 173.133 465.504C173.133 457.137 166.35 450.354 157.983 450.354H156.938C148.571 450.354 141.788 443.571 141.788 435.204V379.827C141.788 371.46 148.571 364.677 156.938 364.677H157.983C166.35 364.677 173.133 357.894 173.133 349.527C173.133 341.16 179.916 334.377 188.283 334.377H388.894C397.261 334.377 404.044 341.16 404.044 349.527C404.044 357.894 410.827 364.677 419.194 364.677C427.561 364.677 434.344 371.46 434.344 379.827V435.204C434.344 443.571 427.561 450.354 419.194 450.354Z" fill="#ACDF91"/>
<path d="M444.793 303.031V512H455.347C461.059 512 465.69 507.369 465.69 501.657V313.374C465.69 307.662 461.059 303.031 455.347 303.031H444.793Z" fill="#51BE26"/>
<path d="M287.543 438.86C304.854 438.86 318.888 424.826 318.888 407.515C318.888 390.204 304.854 376.17 287.543 376.17C270.232 376.17 256.198 390.204 256.198 407.515C256.198 424.826 270.232 438.86 287.543 438.86Z" fill="#51BE26"/>
<path d="M308.962 51.318H120.89C116.605 51.318 113.132 54.791 113.132 59.076V90.42C113.132 94.704 116.605 98.178 120.89 98.178H308.962C313.247 98.178 316.72 94.705 316.72 90.42V59.075C316.72 54.791 313.247 51.318 308.962 51.318Z" fill="#FCE25C"/>
<path d="M214.927 145.354H79.097C74.812 145.354 71.339 148.827 71.339 153.112V184.457C71.339 188.741 74.812 192.215 79.097 192.215H214.927C219.212 192.215 222.685 188.742 222.685 184.457V153.112C222.684 148.827 219.212 145.354 214.927 145.354Z" fill="#FB636F"/>
<path d="M214.927 223.559H79.097C74.812 223.559 71.339 220.086 71.339 215.801C71.339 211.517 74.812 208.043 79.097 208.043H214.927C219.212 208.043 222.685 211.516 222.685 215.801C222.684 220.086 219.212 223.559 214.927 223.559Z" fill="#818181"/>
<path d="M214.927 254.905H79.097C74.812 254.905 71.339 251.432 71.339 247.147C71.339 242.862 74.812 239.389 79.097 239.389H214.927C219.212 239.389 222.685 242.862 222.685 247.147C222.685 251.432 219.212 254.905 214.927 254.905Z" fill="#818181"/>
<path d="M350.757 223.559H298.514C294.229 223.559 290.756 220.086 290.756 215.801C290.756 211.517 294.229 208.043 298.514 208.043H350.757C355.042 208.043 358.515 211.516 358.515 215.801C358.514 220.086 355.042 223.559 350.757 223.559Z" fill="#818181"/>
<path d="M350.757 254.905H298.514C294.229 254.905 290.756 251.432 290.756 247.147C290.756 242.862 294.229 239.389 298.514 239.389H350.757C355.042 239.389 358.515 242.862 358.515 247.147C358.515 251.432 355.042 254.905 350.757 254.905Z" fill="#818181"/>
<path d="M350.757 129.523H79.097C74.812 129.523 71.339 126.05 71.339 121.765C71.339 117.481 74.812 114.007 79.097 114.007H350.757C355.042 114.007 358.515 117.48 358.515 121.765C358.514 126.05 355.042 129.523 350.757 129.523Z" fill="#818181"/>
<path d="M372.698 413.722H351.801C347.516 413.722 344.043 410.249 344.043 405.964C344.043 401.679 347.516 398.206 351.801 398.206H372.698C376.983 398.206 380.456 401.679 380.456 405.964C380.456 410.249 376.983 413.722 372.698 413.722Z" fill="#51BE26"/>
<path d="M226.42 413.722H205.523C201.238 413.722 197.765 410.249 197.765 405.964C197.765 401.679 201.238 398.206 205.523 398.206H226.42C230.705 398.206 234.178 401.679 234.178 405.964C234.178 410.249 230.704 413.722 226.42 413.722Z" fill="#51BE26"/>
</g>
<defs>
<clipPath id="clip0_113_45">
<rect width="512" height="512" fill="white"/>
</clipPath>
</defs>
</svg>
