<svg width="512" height="512" viewBox="0 0 512 512" fill="none" xmlns="http://www.w3.org/2000/svg">
<g clip-path="url(#clip0_113_272)">
<path fill-rule="evenodd" clip-rule="evenodd" d="M343.133 330.835L349.432 324.537C358.43 315.538 371.028 310.739 385.425 310.739C406.421 310.739 428.916 320.937 446.313 338.334L467.009 359.03C494.304 386.324 495.803 412.119 492.504 428.616C489.804 441.214 483.806 452.911 475.407 463.109L343.133 330.835Z" fill="#7DD63E"/>
<path fill-rule="evenodd" clip-rule="evenodd" d="M48.8905 36.2929C62.6878 25.495 78.8846 18.2964 96.2812 18.2964C116.077 18.2964 135.274 27.2946 152.97 44.9912L173.666 65.6871C204.26 95.9812 210.259 139.773 187.163 162.568L181.165 168.867L48.8905 36.2929Z" fill="#7DD63E"/>
<path fill-rule="evenodd" clip-rule="evenodd" d="M367.728 512C256.75 512 128.975 409.12 59.9883 307.74C4.49913 225.856 -13.1974 148.471 9.89807 89.6824C16.1968 74.0855 26.3949 57.8886 39.5923 44.6912L172.466 177.565L145.172 204.86L307.14 366.828L334.435 339.534L343.133 330.835L475.407 463.109L467.309 472.408C454.111 485.605 437.615 495.803 422.318 502.102C405.521 508.701 387.224 512 367.728 512ZM181.165 168.867L172.466 177.565L39.5923 44.6912L48.8905 36.2928L181.165 168.867Z" fill="#7DD63E"/>
<path fill-rule="evenodd" clip-rule="evenodd" d="M343.133 330.835L334.435 339.534L467.309 472.408L475.407 463.109L343.133 330.835Z" fill="#378B4E"/>
<path fill-rule="evenodd" clip-rule="evenodd" d="M181.165 168.867L172.466 177.565L39.5923 44.6912L48.8905 36.2928L181.165 168.867Z" fill="#378B4E"/>
<path fill-rule="evenodd" clip-rule="evenodd" d="M406.421 500.302C291.243 496.103 155.07 384.825 79.7844 277.146C30.2941 206.06 7.1986 139.173 12.2976 84.2834C11.3978 86.0831 10.7979 87.8827 9.89807 89.6824C-13.1974 148.471 4.49913 225.856 59.9883 307.74C128.975 409.12 256.75 512 367.728 512C387.224 512 405.521 508.701 422.318 502.102C424.117 501.202 425.917 500.302 427.716 499.702C420.818 500.302 413.619 500.302 406.421 500.302Z" fill="#71C138"/>
</g>
<defs>
<clipPath id="clip0_113_272">
<rect width="512" height="512" fill="white"/>
</clipPath>
</defs>
</svg>
