<svg width="44" height="45" viewBox="0 0 44 45" fill="none" xmlns="http://www.w3.org/2000/svg">
<g clip-path="url(#clip0_124_914)">
<path d="M42.6236 22.2034C41.1525 20.991 38.8272 20.887 37.301 22.5249L33.5123 26.592C33.0224 25.0177 31.5521 23.8714 29.8189 23.8714H23.0578C22.5448 23.8714 22.373 23.6755 21.4818 22.9889C18.084 20.0268 12.9805 20.0363 9.59303 23.0173L7.10789 25.2051C5.99079 24.6138 4.68634 24.5992 3.56314 25.1604L0.712766 26.5851C0.0759694 26.904 -0.181757 27.6782 0.136126 28.315L7.87007 43.7828C8.1889 44.4196 8.96311 44.6773 9.59991 44.3594L12.4503 42.9338C13.8553 42.2318 14.6372 40.7983 14.5865 39.3393H29.8189C32.6434 39.3393 35.3426 37.9902 37.0372 35.7302L43.2252 27.479C44.4256 25.8797 44.2357 23.5345 42.6236 22.2034ZM11.297 40.6282L9.59982 41.4772L3.0183 28.315L4.71634 27.466C5.35313 27.148 6.12648 27.405 6.44531 28.0426L11.8736 38.8993C12.1916 39.536 11.9338 40.3094 11.297 40.6282ZM41.1628 25.9321L34.9748 34.1833C33.7641 35.798 31.8366 36.7613 29.8189 36.7613H13.6868L8.85655 27.0999L11.2961 24.9525C13.7237 22.817 17.3845 22.817 19.812 24.9525C21.2419 26.2114 22.1313 26.4494 23.0577 26.4494H29.8189C30.5296 26.4494 31.1078 27.0278 31.1078 27.7384C31.1078 28.449 30.5295 29.0274 29.8189 29.0274H23.2356C22.524 29.0274 21.9466 29.6049 21.9466 30.3164C21.9466 31.0279 22.5241 31.6054 23.2356 31.6054H30.6825C31.7524 31.6054 32.7836 31.1568 33.5123 30.374L39.1872 24.2822C39.7063 23.7253 40.502 23.7717 40.9901 24.1988C41.5005 24.6456 41.5556 25.4096 41.1628 25.9321Z" fill="#FF922E"/>
<path d="M27.1034 9.29385C27.9859 8.36839 28.5299 7.11722 28.5299 5.73965C28.5299 2.90216 26.2372 0.497803 23.374 0.497803C20.5322 0.497803 18.1321 2.89787 18.1321 5.73965C18.1321 7.07503 18.6555 8.33565 19.6059 9.30416C17.2488 10.6258 15.5542 13.1625 15.5542 16.1375V17.4265C15.5542 18.1379 16.1317 18.7154 16.8431 18.7154H29.8189C30.5304 18.7154 31.1079 18.1379 31.1079 17.4265V16.1375C31.1078 13.2209 29.5036 10.6447 27.1034 9.29385ZM23.374 3.07584C24.7712 3.07584 25.9519 4.29607 25.9519 5.73973C25.9519 7.16105 24.7953 8.31769 23.374 8.31769C21.9303 8.31769 20.7101 7.13699 20.7101 5.73973C20.7101 4.32099 21.9552 3.07584 23.374 3.07584ZM18.1321 16.1375C18.1321 13.2957 20.5322 10.8956 23.374 10.8956C26.2166 10.8956 28.5299 13.2467 28.5299 16.1375H18.1321Z" fill="#FF922E"/>
</g>
<defs>
<clipPath id="clip0_124_914">
<rect width="44" height="44" fill="white" transform="translate(0 0.496582)"/>
</clipPath>
</defs>
</svg>
