<svg width="28" height="29" viewBox="0 0 28 29" fill="none" xmlns="http://www.w3.org/2000/svg">
<path d="M25.8735 9.91258C25.9608 9.4449 26.0049 8.97019 26.0055 8.49443C26.0002 4.07578 22.4139 0.498091 17.9952 0.503424C14.6316 0.507467 11.6297 2.61497 10.4832 5.77726C8.43057 4.96016 6.10414 5.96173 5.28698 8.01439C5.21625 8.19206 5.15835 8.37453 5.11376 8.56047C1.83621 9.05065 -0.423362 12.105 0.0668167 15.3825C0.506425 18.322 3.03168 20.4968 6.00382 20.4955H11.0042C11.5566 20.4955 12.0043 20.0478 12.0043 19.4954C12.0043 18.9431 11.5566 18.4953 11.0042 18.4953H6.00382C3.79446 18.4953 2.00345 16.7043 2.00345 14.4949C2.00345 12.2856 3.79446 10.4946 6.00382 10.4946C6.55617 10.4946 7.00392 10.0468 7.00392 9.49448C7.00574 8.38983 7.90271 7.49579 9.00736 7.4976C9.52977 7.49848 10.0311 7.7037 10.4042 8.06935C10.7976 8.45704 11.4308 8.45241 11.8185 8.05904C11.964 7.91131 12.0601 7.72204 12.0933 7.51729C12.6361 4.2514 15.7237 2.04399 18.9896 2.58685C22.2555 3.12971 24.4629 6.21728 23.9201 9.48317C23.8877 9.67789 23.8457 9.87091 23.7943 10.0615C23.6793 10.4789 23.846 10.9229 24.2074 11.1616C26.0483 12.383 26.5504 14.8657 25.3289 16.7066C24.5895 17.8209 23.3424 18.492 22.0052 18.4952H19.0049C18.4525 18.4952 18.0048 18.9429 18.0048 19.4953C18.0048 20.0477 18.4525 20.4954 19.0049 20.4954H22.0052C25.3192 20.4923 28.0032 17.8032 28 14.4892C27.9984 12.7253 27.2206 11.0514 25.8735 9.91258Z" fill="#121212"/>
<path d="M20.6894 21.7885C20.3018 21.4142 19.6874 21.4142 19.2999 21.7885L16.0046 25.0818V10.4945C16.0046 9.94214 15.5569 9.49438 15.0045 9.49438C14.4522 9.49438 14.0044 9.94214 14.0044 10.4945V25.0817L10.7111 21.7884C10.3138 21.4047 9.68069 21.4157 9.29698 21.813C8.92265 22.2005 8.92265 22.815 9.29698 23.2025L14.2974 28.2029C14.6874 28.594 15.3207 28.5948 15.7117 28.2047C15.7123 28.2041 15.7129 28.2035 15.7136 28.2029L20.714 23.2025C21.0977 22.8053 21.0867 22.1722 20.6894 21.7885Z" fill="#121212"/>
</svg>
