<svg width="376" height="440" viewBox="0 0 376 440" fill="none" xmlns="http://www.w3.org/2000/svg">
<path d="M317.352 74.0547L237.352 2.05469C235.883 0.730469 233.977 0 232 0H32C14.3555 0 0 14.3555 0 32V408C0 425.645 14.3555 440 32 440H288C305.645 440 320 425.645 320 408V80C320 77.7305 319.035 75.5703 317.352 74.0547Z" fill="#FB636F"/>
<path d="M312 416H56C38.3555 416 24 401.645 24 384V8C24 5.53125 24.2891 3.13281 24.8203 0.820312C10.6211 4.08984 0 16.8242 0 32V408C0 425.645 14.3555 440 32 440H288C303.176 440 315.91 429.375 319.18 415.18C316.867 415.711 314.469 416 312 416Z" fill="#D5D8DE"/>
<path d="M232 192H88C70.3555 192 56 206.355 56 224V336C56 353.645 70.3555 368 88 368H232C249.645 368 264 353.645 264 336V224C264 206.355 249.645 192 232 192Z" fill="#F6E477"/>
<path d="M216 240V192H200V240H168V192H152V240H120V192H104V240H56V256H264V240H216Z" fill="#F5AF50"/>
<path d="M56 320H152V368H168V320H200V368H216V320H264V304H56V320Z" fill="#F5AF50"/>
<path d="M320 40C289.121 40 264 65.1211 264 96C264 126.879 289.121 152 320 152C350.879 152 376 126.879 376 96C376 65.1211 350.879 40 320 40Z" fill="#78D67F"/>
<path d="M344 136C313.121 136 288 110.879 288 80C288 65.8125 293.312 52.8516 302.039 42.9727C279.949 50.4727 264 71.4023 264 96C264 126.879 289.121 152 320 152C336.691 152 351.691 144.652 361.961 133.027C356.316 134.945 350.281 136 344 136Z" fill="#65D06C"/>
<path d="M312 120C309.953 120 307.906 119.219 306.344 117.656L290.344 101.656C287.219 98.5312 287.219 93.4688 290.344 90.3438C293.469 87.2188 298.531 87.2188 301.656 90.3438L312 100.688L338.344 74.3438C341.469 71.2188 346.531 71.2188 349.656 74.3438C352.781 77.4688 352.781 82.5312 349.656 85.6562L317.656 117.656C316.094 119.219 314.047 120 312 120Z" fill="#F4F5F7"/>
</svg>
