<svg width="503" height="522" viewBox="0 0 503 522" fill="none" xmlns="http://www.w3.org/2000/svg">
<path d="M408.369 247.293H0.0269775V522H408.369V247.293Z" fill="#F5B43C"/>
<path d="M211.35 107.717C208.772 105.608 206.037 105.165 204.198 105.165C202.359 105.165 199.625 105.608 197.045 107.717L26.3245 247.293V447.136C26.3245 476.608 50.2159 500.499 79.6875 500.499H328.708C358.18 500.499 382.071 476.608 382.071 447.136V247.293L211.35 107.717Z" fill="#F5B43C"/>
<path d="M211.35 107.717C208.772 105.608 206.037 105.165 204.198 105.165C202.359 105.165 199.625 105.608 197.045 107.717L37.1198 238.467C30.2875 244.053 26.3245 252.412 26.3245 261.237V500.499H382.071V261.237C382.071 252.412 378.108 244.053 371.276 238.467L211.35 107.717Z" fill="#F5B43C"/>
<path d="M199.806 83.959L0.0269775 247.293H408.369L208.59 83.959C206.035 81.87 202.362 81.87 199.806 83.959Z" fill="#F8C940"/>
<path d="M373.001 496.863H44.7058C34.6136 496.863 26.4321 488.682 26.4321 478.59V134.199C26.4321 124.107 34.6136 115.925 44.7058 115.925H373.001C383.093 115.925 391.274 124.107 391.274 134.199V478.59C391.274 488.682 383.093 496.863 373.001 496.863Z" fill="#F5F5F5"/>
<path d="M76.4089 187.753H340.528" stroke="#DAD8DA" stroke-width="20" stroke-miterlimit="10" stroke-linecap="round" stroke-linejoin="round"/>
<path d="M76.4089 221.97H340.528" stroke="#DAD8DA" stroke-width="20" stroke-miterlimit="10" stroke-linecap="round" stroke-linejoin="round"/>
<path d="M76.4089 256.182H340.528" stroke="#DAD8DA" stroke-width="20" stroke-miterlimit="10" stroke-linecap="round" stroke-linejoin="round"/>
<path d="M76.4089 290.396H340.528" stroke="#DAD8DA" stroke-width="20" stroke-miterlimit="10" stroke-linecap="round" stroke-linejoin="round"/>
<path d="M76.4089 324.611H340.528" stroke="#DAD8DA" stroke-width="20" stroke-miterlimit="10" stroke-linecap="round" stroke-linejoin="round"/>
<path d="M76.4089 358.823H340.528" stroke="#DAD8DA" stroke-width="20" stroke-miterlimit="10" stroke-linecap="round" stroke-linejoin="round"/>
<path d="M76.4089 393.04H340.528" stroke="#DAD8DA" stroke-width="20" stroke-miterlimit="10" stroke-linecap="round" stroke-linejoin="round"/>
<path d="M161.719 422.755L0.0269775 522V247.293L161.719 346.537C190.151 363.989 190.151 405.304 161.719 422.755Z" fill="#F8C940"/>
<path d="M246.678 422.755L408.369 522V247.293L246.678 346.537C218.245 363.989 218.245 405.304 246.678 422.755Z" fill="#F8C940"/>
<path d="M199.806 358.666L0.0269775 522H408.369L208.59 358.666C206.035 356.577 202.362 356.577 199.806 358.666Z" fill="#F5B43C"/>
<path d="M321.816 211.538L280.261 225.277L294.139 183.778" fill="#337AFF"/>
<path d="M436.837 201.553C472.672 165.151 471.77 106.157 434.823 69.7859C397.876 33.4145 338.875 33.4388 303.041 69.8403C267.206 106.242 268.108 165.236 305.055 201.607C342.002 237.979 401.003 237.954 436.837 201.553Z" fill="#337AFF"/>
<path d="M323.759 205.854L282.423 219.652L296.829 178.523" fill="#4788FF"/>
<path d="M437.219 195.879C473.549 159.968 474.079 101.598 438.402 65.5053C402.726 29.4127 344.353 29.2657 308.023 65.1768C271.693 101.088 271.163 159.458 306.84 195.551C342.516 231.643 400.889 231.79 437.219 195.879Z" fill="#4788FF"/>
<path d="M346.561 138.508C351.01 136.665 353.122 131.565 351.279 127.116C349.437 122.668 344.336 120.555 339.888 122.398C335.439 124.241 333.326 129.341 335.169 133.79C337.012 138.238 342.112 140.351 346.561 138.508Z" fill="#F5F5F5"/>
<path d="M380.994 132.498C382.1 127.812 379.199 123.116 374.512 122.01C369.826 120.903 365.13 123.805 364.024 128.491C362.917 133.177 365.819 137.873 370.505 138.979C375.191 140.086 379.887 137.184 380.994 132.498Z" fill="#F5F5F5"/>
<path d="M408.165 136.623C411.569 133.219 411.569 127.698 408.164 124.294C404.76 120.889 399.239 120.889 395.835 124.294C392.43 127.698 392.43 133.219 395.835 136.623C399.239 140.028 404.76 140.028 408.165 136.623Z" fill="#F5F5F5"/>
</svg>
