<svg width="512" height="512" viewBox="0 0 512 512" fill="none" xmlns="http://www.w3.org/2000/svg">
<path d="M424 184L360 224V184C349.391 184 339.217 179.786 331.716 172.284C324.214 164.783 320 154.609 320 144V56C320 45.3913 324.214 35.2172 331.716 27.7157C339.217 20.2143 349.391 16 360 16H456C466.609 16 476.783 20.2143 484.284 27.7157C491.786 35.2172 496 45.3913 496 56V144C496 149.253 494.965 154.454 492.955 159.307C490.945 164.16 487.999 168.57 484.284 172.284C480.57 175.999 476.16 178.945 471.307 180.955C466.454 182.965 461.253 184 456 184H424Z" fill="#F9D266"/>
<path d="M360 16C349.391 16 339.217 20.2143 331.716 27.7157C324.214 35.2172 320 45.3913 320 56V142.496C352.007 138.122 381.702 123.388 404.545 100.545C427.388 77.7018 442.122 48.0073 446.496 16H360Z" fill="#FCE797"/>
<path d="M96 378.16C123.025 418.856 164.538 447.728 212.095 458.902C259.652 470.077 309.679 462.714 352 438.312V361.672C352.008 354.386 349.529 347.315 344.973 341.629C340.417 335.942 334.057 331.981 326.944 330.4L280 320L248 304H200L168 320L121.056 330.4C113.943 331.981 107.583 335.942 103.027 341.629C98.4712 347.315 95.9922 354.386 96 361.672V378.16Z" fill="#5979C2"/>
<path d="M144 359.984H159.992V441.416H144V359.984Z" fill="#E2DFF4"/>
<path d="M288 359.984H303.992V467.816H288V359.984Z" fill="#E2DFF4"/>
<path d="M216 311.984H231.992V469.536H216V311.984Z" fill="#E2DFF4"/>
<path d="M384 32H352V48H376V56H360C357.878 56 355.843 56.8429 354.343 58.3431C352.843 59.8434 352 61.8783 352 64V88C352 90.1217 352.843 92.1566 354.343 93.6569C355.843 95.1571 357.878 96 360 96H392V80H368V72H384C386.122 72 388.157 71.1571 389.657 69.6569C391.157 68.1566 392 66.1217 392 64V40C392 37.8783 391.157 35.8434 389.657 34.3431C388.157 32.8429 386.122 32 384 32Z" fill="#F5B43C"/>
<path d="M440 96V72H448V56H440V40H424V56H416V32H400V64C400 66.1217 400.843 68.1566 402.343 69.6569C403.843 71.1571 405.878 72 408 72H424V96H440Z" fill="#F5B43C"/>
<path d="M472 136C472 131.757 470.314 127.687 467.314 124.686C464.313 121.686 460.243 120 456 120H440V104H424V160H440V136H456V160H472V136Z" fill="#F5B43C"/>
<path d="M480 272C480 331.408 456.4 388.384 414.392 430.392C372.384 472.4 315.408 496 256 496C196.592 496 139.616 472.4 97.6081 430.392C55.5999 388.384 32 331.408 32 272H16L48 224L80 272H64C64 322.922 84.2285 371.758 120.235 407.764C156.242 443.771 205.078 464 256 464C306.922 464 355.758 443.771 391.764 407.764C427.771 371.758 448 322.922 448 272H432L464 224L496 272H480Z" fill="#71C138"/>
<path d="M200 280V304L224 320L248 304V280" fill="#F5CF88"/>
<path d="M157.904 96C156.414 90.2199 154.12 84.6778 151.088 79.536L163.888 66.736L141.256 44.12L128.456 56.92C123.317 53.8863 117.778 51.5892 112 50.096V32H80V50.096C74.2199 51.5859 68.6778 53.8804 63.536 56.912L50.736 44.112L28.12 66.744L40.92 79.544C37.8863 84.6829 35.5892 90.2223 34.096 96H16V128H34.096C35.5859 133.78 37.8804 139.322 40.912 144.464L28.112 157.264L50.736 179.888L63.536 167.088C68.6778 170.12 74.2199 172.414 80 173.904V192H112V173.904C117.78 172.414 123.322 170.12 128.464 167.088L141.264 179.888L153.528 167.624L152.728 163.512C152.249 161.18 152.005 158.805 152 156.424C152 150.193 153.614 144.069 156.684 138.648C159.754 133.226 164.177 128.692 169.52 125.488C171.632 124.216 173.8 123.032 176 121.936V96H157.904ZM96 144C89.671 144 83.4841 142.123 78.2218 138.607C72.9594 135.091 68.8579 130.093 66.4359 124.246C64.0138 118.399 63.3801 111.965 64.6149 105.757C65.8496 99.5497 68.8973 93.8479 73.3726 89.3726C77.8479 84.8973 83.5497 81.8496 89.7571 80.6149C95.9645 79.3801 102.399 80.0138 108.246 82.4359C114.093 84.8579 119.091 88.9594 122.607 94.2218C126.123 99.4841 128 105.671 128 112C128 120.487 124.629 128.626 118.627 134.627C112.626 140.629 104.487 144 96 144Z" fill="#A8A8A8"/>
<path d="M176 200H152C147.757 200 143.687 201.686 140.686 204.686C137.686 207.687 136 211.757 136 216C136 220.243 137.686 224.313 140.686 227.314C143.687 230.314 147.757 232 152 232H176" fill="#F5CF88"/>
<path d="M280 200H288L295.296 163.504C295.766 161.173 296.002 158.802 296 156.424C296 150.193 294.386 144.069 291.316 138.648C288.246 133.226 283.823 128.692 278.48 125.488C263.767 116.663 246.933 112.001 229.776 112H218.224C201.067 112.001 184.233 116.663 169.52 125.488C164.177 128.692 159.754 133.226 156.684 138.648C153.614 144.069 152 150.193 152 156.424C151.998 158.802 152.234 161.173 152.704 163.504L160 200H168V176L184.472 165.024C189.379 161.746 195.147 159.998 201.048 160C205.693 160.004 210.274 161.091 214.426 163.174C218.578 165.257 222.187 168.279 224.968 172L240 192L242.688 188C246.78 181.852 252.327 176.81 258.836 173.321C265.345 169.832 272.615 168.005 280 168V200Z" fill="#976947"/>
<path d="M280 168V220.8C280 238.422 274.002 255.52 262.992 269.28C258.312 275.124 252.378 279.841 245.628 283.082C238.879 286.322 231.487 288.003 224 288C216.511 288 209.118 286.315 202.368 283.071C195.619 279.826 189.685 275.105 185.008 269.256C174.004 255.502 168.006 238.414 168 220.8V176L184.472 165.024C189.379 161.746 195.147 159.998 201.048 160C205.693 160.004 210.274 161.091 214.426 163.174C218.578 165.257 222.187 168.279 224.968 172L240 192L242.688 188C246.78 181.852 252.327 176.81 258.836 173.321C265.345 169.832 272.615 168.005 280 168Z" fill="#FADFB2"/>
<path d="M288 272H224V256H288C290.122 256 292.157 255.157 293.657 253.657C295.157 252.157 296 250.122 296 248V216H312V248C312 254.365 309.471 260.47 304.971 264.971C300.47 269.471 294.365 272 288 272Z" fill="#B5B5B5"/>
<path d="M279.2 232H296C300.243 232 304.313 230.314 307.314 227.314C310.314 224.313 312 220.243 312 216C312 211.757 310.314 207.687 307.314 204.686C304.313 201.686 300.243 200 296 200H280V220.8C280.006 224.548 279.739 228.291 279.2 232Z" fill="#F5CF88"/>
<path d="M200 304L168 320L200 352L224 320" fill="#213D68"/>
<path d="M248 304L280 320L248 352L224 320" fill="#213D68"/>
<path d="M424 40V56H416V32H400V64C400 66.1217 400.843 68.1566 402.343 69.6569C403.843 71.1571 405.878 72 408 72H424V76.68C430.68 66.4079 436.054 55.3442 440 43.744V40H424Z" fill="#F5B43C"/>
</svg>
