<svg width="512" height="512" viewBox="0 0 512 512" fill="none" xmlns="http://www.w3.org/2000/svg">
<path d="M256 512C391.31 512 501 402.31 501 267C501 131.69 391.31 22 256 22C120.69 22 11 131.69 11 267C11 402.31 120.69 512 256 512Z" fill="#85ADDF"/>
<path d="M433.204 0H144.694C139.171 0 134.694 4.477 134.694 10V226.388L157.716 216.162C159.648 215.304 161.699 214.869 163.813 214.869C165.927 214.869 167.978 215.304 169.91 216.162L256.91 254.807C262.33 257.214 265.832 262.602 265.832 268.533V331.9C265.832 345.247 264.249 357.476 261.086 368.723C263.222 370.152 265.232 371.799 267.087 373.653L275.303 381.87L283.519 373.653C290.982 366.191 300.947 362.082 311.576 362.082C322.206 362.082 332.17 366.191 339.634 373.653C348.132 382.151 351.951 393.576 351.113 404.713H433.202C438.725 404.713 443.202 400.236 443.202 394.713V10C443.204 4.477 438.727 0 433.204 0Z" fill="#EAF6FF"/>
<path d="M157.717 216.162C159.649 215.304 161.7 214.869 163.814 214.869C165.928 214.869 167.979 215.304 169.911 216.162L174.694 218.287V10C174.694 4.477 179.171 0 184.694 0H144.694C139.171 0 134.694 4.477 134.694 10V226.388L157.717 216.162Z" fill="#D8ECFE"/>
<path d="M381.482 152.593H196.416C192.274 152.593 188.916 149.236 188.916 145.093C188.916 140.95 192.274 137.593 196.416 137.593H381.482C385.624 137.593 388.982 140.95 388.982 145.093C388.982 149.236 385.625 152.593 381.482 152.593Z" fill="#017B4E"/>
<path d="M381.482 182.721H196.416C192.274 182.721 188.916 179.364 188.916 175.221C188.916 171.078 192.274 167.721 196.416 167.721H381.482C385.624 167.721 388.982 171.078 388.982 175.221C388.982 179.364 385.625 182.721 381.482 182.721Z" fill="#017B4E"/>
<path d="M381.482 212.849H196.416C192.274 212.849 188.916 209.492 188.916 205.349C188.916 201.206 192.274 197.849 196.416 197.849H381.482C385.624 197.849 388.982 201.206 388.982 205.349C388.982 209.492 385.625 212.849 381.482 212.849Z" fill="#017B4E"/>
<path d="M381.482 268.8H290.67C286.528 268.8 283.17 265.443 283.17 261.3C283.17 257.157 286.528 253.8 290.67 253.8H381.482C385.624 253.8 388.982 257.157 388.982 261.3C388.982 265.443 385.625 268.8 381.482 268.8Z" fill="#09A76D"/>
<path d="M381.482 85.125H290.67C286.528 85.125 283.17 81.768 283.17 77.625C283.17 73.482 286.528 70.125 290.67 70.125H381.482C385.624 70.125 388.982 73.482 388.982 77.625C388.982 81.768 385.625 85.125 381.482 85.125Z" fill="#09A76D"/>
<path d="M381.482 298.928H290.67C286.528 298.928 283.17 295.571 283.17 291.428C283.17 287.285 286.528 283.928 290.67 283.928H381.482C385.624 283.928 388.982 287.285 388.982 291.428C388.982 295.571 385.625 298.928 381.482 298.928Z" fill="#09A76D"/>
<path d="M381.482 329.056H290.67C286.528 329.056 283.17 325.699 283.17 321.556C283.17 317.413 286.528 314.056 290.67 314.056H381.482C385.624 314.056 388.982 317.413 388.982 321.556C388.982 325.699 385.625 329.056 381.482 329.056Z" fill="#09A76D"/>
<path d="M220.074 63.5741H207.312C205.439 63.5741 203.916 62.0511 203.916 60.1781V56.4491C203.916 54.5771 205.439 53.0531 207.312 53.0531H228.512C232.654 53.0531 236.012 49.6961 236.012 45.5531C236.012 41.4101 232.654 38.0531 228.512 38.0531H221.193V37.3C221.193 33.157 217.835 29.8 213.693 29.8C209.551 29.8 206.193 33.157 206.193 37.3V38.1101C196.571 38.6931 188.916 46.6831 188.916 56.4491V60.1781C188.916 70.3221 197.168 78.574 207.312 78.574H220.074C221.946 78.574 223.47 80.097 223.47 81.9701V85.7C223.47 87.572 221.947 89.0961 220.074 89.0961H198.384C194.242 89.0961 190.884 92.4531 190.884 96.5961C190.884 100.739 194.242 104.096 198.384 104.096H206.193V105.944C206.193 110.087 209.551 113.444 213.693 113.444C217.835 113.444 221.193 110.087 221.193 105.944V104.04C230.815 103.457 238.47 95.467 238.47 85.701V81.972C238.47 71.827 230.218 63.5741 220.074 63.5741Z" fill="#09A76D"/>
<path d="M210.09 428.837H178.733C175.149 428.837 172.233 425.921 172.233 422.337C172.233 418.753 175.149 415.837 178.733 415.837H201.966C196.593 401.677 199.588 385.039 210.974 373.652C218.437 366.19 228.402 362.081 239.032 362.081C247.397 362.081 255.343 364.636 261.99 369.356C265.153 358.208 266.834 345.808 266.834 331.899V268.532C266.834 262.2 263.104 256.462 257.317 253.892L170.317 215.248C166.177 213.409 161.451 213.409 157.311 215.248L70.311 253.892C64.524 256.462 60.794 262.2 60.794 268.532V331.899C60.794 399.366 100.249 431.386 157.342 456.721C161.458 458.548 166.171 458.548 170.287 456.721C186.48 449.535 201.252 441.81 214.109 432.893C213.05 431.837 212.001 430.79 210.974 429.766C210.67 429.463 210.383 429.148 210.09 428.837Z" fill="#09A76D"/>
<path d="M189.557 446.864C129.954 420.414 88.764 386.987 88.764 316.553V250.4C88.764 248.654 89.043 246.954 89.554 245.344L70.311 253.892C64.524 256.462 60.794 262.2 60.794 268.532V331.899C60.794 399.366 100.249 431.386 157.342 456.721C161.458 458.548 166.171 458.548 170.287 456.721C177.224 453.643 183.898 450.464 190.275 447.137C190.036 447.045 189.792 446.968 189.557 446.864Z" fill="#02905D"/>
<path d="M213.048 311.038H184.987V282.977C184.987 280.216 182.748 277.977 179.987 277.977H147.64C144.879 277.977 142.64 280.216 142.64 282.977V311.038H114.579C111.818 311.038 109.579 313.277 109.579 316.038V348.385C109.579 351.146 111.818 353.385 114.579 353.385H142.64V381.446C142.64 384.207 144.879 386.446 147.64 386.446H179.987C182.748 386.446 184.987 384.207 184.987 381.446V353.385H213.048C215.809 353.385 218.048 351.146 218.048 348.385V316.038C218.048 313.277 215.81 311.038 213.048 311.038Z" fill="white"/>
<path d="M160.307 373.78C157.546 373.78 155.307 371.541 155.307 368.78V345.719C155.307 342.958 153.068 340.719 150.307 340.719H127.246C124.485 340.719 122.246 338.48 122.246 335.719V311.038H114.579C111.818 311.038 109.579 313.277 109.579 316.038V348.385C109.579 351.146 111.818 353.385 114.579 353.385H142.64V381.446C142.64 384.207 144.879 386.446 147.64 386.446H179.987C182.748 386.446 184.987 384.207 184.987 381.446V373.779H160.307V373.78Z" fill="#EAF6FF"/>
<path d="M303.68 438.015C301.368 438.015 299.213 436.772 298.055 434.772L288.421 418.132L273.372 451.466C272.365 453.697 270.219 455.16 267.774 455.282C267.662 455.288 267.554 455.291 267.447 455.291C265.134 455.291 262.979 454.047 261.822 452.045L248.404 428.837H208.725C209.223 429.393 209.736 429.941 210.271 430.475C232.911 453.06 260.39 480.427 270.75 490.654C272.014 491.902 273.661 492.525 275.309 492.525C276.957 492.525 278.604 491.901 279.868 490.654C289.1 481.54 311.911 458.831 332.787 438.014H303.68V438.015Z" fill="#FB2B3A"/>
<path d="M252.151 415.837C254.464 415.837 256.62 417.081 257.778 419.084L266.734 434.573L281.779 401.248C282.786 399.018 284.93 397.555 287.375 397.432C287.497 397.425 287.615 397.422 287.732 397.422C290.025 397.422 292.169 398.665 293.328 400.666L307.426 425.015H344.91C356.008 409.157 354.493 387.097 340.343 372.946C332.691 365.295 322.476 361.081 311.579 361.081C300.681 361.081 290.467 365.295 282.814 372.946L275.305 380.455L267.796 372.946C260.144 365.295 249.929 361.081 239.032 361.081C228.134 361.081 217.92 365.295 210.267 372.946C198.689 384.524 195.572 401.397 200.897 415.837H252.151Z" fill="#FB2B3A"/>
<path d="M231.389 428.837H208.722C209.22 429.393 209.733 429.941 210.268 430.475C232.908 453.06 260.387 480.427 270.747 490.654C272.011 491.902 273.658 492.525 275.306 492.525C276.954 492.525 278.601 491.901 279.865 490.654C281.65 488.892 283.952 486.612 286.64 483.946C273.722 471.131 251.675 449.17 232.936 430.475C232.4 429.941 231.887 429.393 231.389 428.837Z" fill="#E41F2D"/>
<path d="M223.565 415.837C218.24 401.397 221.357 384.524 232.935 372.946C237.852 368.029 243.831 364.541 250.366 362.67C246.732 361.629 242.927 361.081 239.033 361.081C228.135 361.081 217.921 365.295 210.268 372.946C198.69 384.524 195.573 401.397 200.898 415.837H223.565Z" fill="#E41F2D"/>
<path d="M267.445 456.291C264.778 456.291 262.299 454.871 260.954 452.545L247.824 429.837H178.733C174.591 429.837 171.233 426.48 171.233 422.337C171.233 418.194 174.591 414.837 178.733 414.837H252.151C254.829 414.837 257.303 416.265 258.644 418.583L266.624 432.386L280.868 400.837C282.025 398.274 284.518 396.574 287.326 396.433C290.138 396.279 292.785 397.732 294.195 400.165L308.004 424.015H354.632C358.774 424.015 362.132 427.372 362.132 431.515C362.132 435.658 358.774 439.015 354.632 439.015H303.68C301.004 439.015 298.531 437.589 297.189 435.273L288.53 420.319L274.282 451.878C273.125 454.441 270.631 456.142 267.822 456.282C267.696 456.288 267.571 456.291 267.445 456.291Z" fill="white"/>
</svg>
