<svg width="512" height="512" viewBox="0 0 512 512" fill="none" xmlns="http://www.w3.org/2000/svg">
<path d="M256 0C203.364 0 143.186 81.754 143.186 182.237C143.186 312.068 248.859 501.135 252.619 509.127C253.48 510.958 254.709 511.999 255.999 511.999C258.461 511.999 260.809 510.957 262.452 509.127C269.63 501.135 438.236 312.068 438.236 182.237C438.237 81.754 356.488 0 256 0ZM256 277.695C203.28 277.695 160.542 234.958 160.542 182.237C160.542 129.516 203.28 86.78 256 86.78C308.72 86.78 351.458 129.517 351.458 182.238C351.458 234.959 308.72 277.695 256 277.695Z" fill="#FF6469"/>
<path d="M252.62 509.128C248.859 501.136 143.187 312.069 143.187 182.238C143.186 81.754 203.364 0 256 0C155.512 0 73.763 81.754 73.763 182.237C73.763 312.068 242.369 501.135 249.547 509.127C251.191 510.958 253.539 511.999 256 511.999C254.71 512 253.481 510.958 252.62 509.128Z" fill="#D2555F"/>
</svg>
