<svg width="503" height="503" viewBox="0 0 503 503" fill="none" xmlns="http://www.w3.org/2000/svg">
<path d="M400.828 389.581C400.828 405.968 387.404 419.384 371.025 419.384H263.698C247.303 419.384 233.887 405.968 233.887 389.581V121.278C233.887 104.891 247.303 91.4752 263.698 91.4752H371.025C387.412 91.4752 400.828 104.891 400.828 121.278V389.581Z" fill="#37474F"/>
<path d="M263.698 91.4752C247.303 91.4752 233.887 104.891 233.887 121.278V389.589C233.887 393.731 234.76 397.692 236.316 401.292L357.995 91.4752H263.698Z" fill="#455A64"/>
<path d="M317.362 407.461C323.946 407.461 329.284 402.123 329.284 395.539C329.284 388.954 323.946 383.616 317.362 383.616C310.777 383.616 305.439 388.954 305.439 395.539C305.439 402.123 310.777 407.461 317.362 407.461Z" fill="#607D8B"/>
<path d="M275.62 109.363H281.578V115.321H275.62V109.363Z" fill="#607D8B"/>
<path d="M335.242 112.342C335.242 113.977 333.906 115.321 332.263 115.321H296.487C294.852 115.321 293.508 113.977 293.508 112.342C293.508 110.699 294.844 109.363 296.487 109.363H332.263C333.898 109.363 335.242 110.699 335.242 112.342Z" fill="#607D8B"/>
<path d="M245.81 133.201H388.905V377.659H245.81V133.201Z" fill="#607D8B"/>
<path d="M55.0156 180.907H388.905V324.003H55.0156V180.907Z" fill="#00E676"/>
<path d="M105.536 303.128C104.152 290.71 94.2653 280.823 81.8475 279.44V225.454C94.2653 224.071 104.152 214.176 105.536 201.766H338.393C339.769 214.176 349.664 224.071 362.081 225.454V279.44C349.664 280.823 339.776 290.71 338.393 303.128H105.536Z" fill="#B9F6CA"/>
<path d="M335.839 204.752C338.22 216.416 347.424 225.619 359.087 228V276.894C347.424 279.275 338.22 288.486 335.839 300.157H108.074C105.701 288.486 96.4817 279.275 84.8184 276.894V228C96.4817 225.619 105.701 216.416 108.074 204.752H335.839ZM341.207 198.795H102.714C102.714 211.967 92.0333 222.632 78.861 222.632V282.269C92.0333 282.269 102.714 292.927 102.714 306.107H341.199C341.199 292.927 351.88 282.269 365.052 282.269V222.632C351.88 222.632 341.207 211.967 341.207 198.795Z" fill="#00C853"/>
<path d="M305.431 243.499C310.367 243.499 314.375 247.5 314.375 252.451C314.375 257.379 310.375 261.387 305.431 261.387C300.487 261.387 296.487 257.379 296.487 252.451C296.487 247.5 300.487 243.499 305.431 243.499ZM305.431 237.55C297.21 237.55 290.522 244.23 290.522 252.451C290.522 260.664 297.21 267.352 305.431 267.352C313.644 267.352 320.332 260.656 320.332 252.451C320.34 244.222 313.652 237.55 305.431 237.55Z" fill="#00C853"/>
<path d="M138.49 243.499C143.418 243.499 147.434 247.5 147.434 252.451C147.434 257.379 143.426 261.387 138.49 261.387C133.554 261.387 129.546 257.379 129.546 252.451C129.546 247.5 133.554 243.499 138.49 243.499ZM138.49 237.55C130.261 237.55 123.581 244.23 123.581 252.451C123.581 260.664 130.261 267.352 138.49 267.352C146.711 267.352 153.391 260.656 153.391 252.451C153.391 244.222 146.711 237.55 138.49 237.55Z" fill="#00C853"/>
<g opacity="0.3">
<path d="M126.56 318.037H198.111V180.907H102.714V294.184C102.714 307.349 113.387 318.037 126.56 318.037Z" fill="#37474F"/>
</g>
<path d="M388.905 174.934V318.037H144.447C131.275 318.037 120.602 307.357 120.602 294.184V174.934H388.905Z" fill="#69F0AE"/>
<path d="M338.393 297.163C339.769 284.745 349.656 274.858 362.081 273.49V219.489C349.656 218.113 339.777 208.226 338.393 195.816H129.546V282.269C129.546 290.475 136.227 297.163 144.447 297.163H338.393Z" fill="#B9F6CA"/>
<path d="M132.525 198.795H335.839C338.22 210.443 347.424 219.662 359.087 222.043V270.936C347.424 273.318 338.22 282.529 335.839 294.184H144.447C137.877 294.184 132.525 288.832 132.525 282.269V198.795ZM126.56 192.822V282.269C126.56 292.141 134.576 300.15 144.447 300.15H341.207C341.207 286.969 351.888 276.288 365.06 276.288V216.675C351.888 216.675 341.207 205.994 341.207 192.822H126.56Z" fill="#00C853"/>
<path d="M221.957 285.248C203.88 285.248 189.167 267.847 189.167 246.478C189.167 225.116 203.88 207.723 221.957 207.723C240.033 207.723 254.746 225.116 254.746 246.478C254.754 267.847 240.041 285.248 221.957 285.248Z" fill="#00E676"/>
<path d="M215.999 259.037V256.907C210.741 254.133 207.055 247.845 207.055 240.521C207.055 230.633 213.728 222.633 221.957 222.633C230.193 222.633 236.858 230.641 236.858 240.521C236.858 247.845 233.18 254.133 227.914 256.907V259.037C236.968 260.806 243.955 266.409 245.472 273.428C239.507 280.698 231.176 285.248 221.949 285.248C212.73 285.248 204.391 280.698 198.426 273.428C199.958 266.401 206.937 260.806 215.999 259.037Z" fill="#B9F6CA"/>
<path d="M186.181 246.478C186.181 269.529 202.198 288.227 221.957 288.227C241.715 288.227 257.725 269.529 257.725 246.478C257.725 223.442 241.707 204.745 221.957 204.745C202.206 204.745 186.181 223.45 186.181 246.478ZM251.775 246.478C251.775 254.384 249.606 261.678 245.975 267.604C242.745 263.163 237.109 260.978 230.908 259.603V258.589C236.394 254.895 239.852 248.01 239.852 240.521C239.852 229.007 231.828 219.654 221.964 219.654C212.109 219.654 204.077 229.007 204.077 240.521C204.077 248.01 207.535 254.895 213.02 258.589V259.603C206.835 260.986 201.161 263.116 197.938 267.565C194.323 261.654 192.162 254.369 192.162 246.478C192.162 226.759 205.538 210.702 221.972 210.702C238.398 210.71 251.775 226.767 251.775 246.478ZM202.292 273.302C202.316 273.286 202.332 273.271 202.34 273.255C202.167 273.074 201.962 272.933 201.782 272.752C201.766 272.736 201.766 272.728 201.75 272.72C203.267 268.924 207.613 266.692 216.557 264.947C217.956 264.68 218.97 263.446 218.97 262.016V256.915C218.97 255.799 218.357 254.785 217.367 254.259C212.903 251.917 210.018 246.525 210.018 240.528C210.018 232.3 215.37 225.619 221.941 225.619C228.519 225.619 233.871 232.307 233.871 240.528C233.871 246.525 230.987 251.917 226.515 254.259C225.54 254.777 224.927 255.799 224.927 256.915V262.016C224.927 263.446 225.941 264.68 227.332 264.947C236.276 266.7 240.63 268.924 242.147 272.72C242.139 272.728 242.124 272.736 242.116 272.752C241.747 273.153 241.322 273.443 240.953 273.829C240.984 273.836 241.023 273.868 241.063 273.884C235.883 279.11 229.211 282.27 221.933 282.27C214.419 282.27 207.55 278.859 202.292 273.302Z" fill="#00C853"/>
<path d="M132.525 198.795H335.839C338.22 210.443 347.424 219.662 359.087 222.043V270.936C347.424 273.318 338.22 282.529 335.839 294.184H144.447C137.877 294.184 132.525 288.832 132.525 282.269V198.795ZM126.56 192.822V282.269C126.56 292.141 134.576 300.15 144.447 300.15H341.207C341.207 286.969 351.888 276.288 365.06 276.288V216.675C351.888 216.675 341.207 205.994 341.207 192.822H126.56Z" fill="#00C853"/>
<path d="M144.447 133.201H162.335V270.331H144.447C131.275 270.331 120.602 281.004 120.602 294.176V192.822V157.046C120.602 143.882 131.275 133.201 144.447 133.201Z" fill="#00C853"/>
<path d="M305.431 237.55C310.367 237.55 314.375 241.55 314.375 246.486C314.375 251.429 310.375 255.438 305.431 255.438C300.487 255.438 296.487 251.429 296.487 246.486C296.487 241.542 300.487 237.55 305.431 237.55ZM305.431 231.584C297.21 231.584 290.522 238.273 290.522 246.486C290.522 254.714 297.21 261.387 305.431 261.387C313.644 261.387 320.332 254.707 320.332 246.486C320.34 238.265 313.652 231.584 305.431 231.584Z" fill="#00C853"/>
<path d="M55.0156 324.003H388.905V329.96H55.0156V324.003Z" fill="#00C853"/>
</svg>
