<svg width="512" height="512" viewBox="0 0 512 512" fill="none" xmlns="http://www.w3.org/2000/svg">
<g clip-path="url(#clip0_113_25)">
<path d="M418.332 349.659H93.668C88.145 349.659 83.668 345.182 83.668 339.659V172.341C83.668 166.818 88.145 162.341 93.668 162.341H418.331C423.854 162.341 428.331 166.818 428.331 172.341V339.658C428.332 345.181 423.855 349.659 418.332 349.659Z" fill="#7FD061"/>
<path d="M386.654 294.4C379.154 294.4 373.073 300.48 373.073 307.98C373.073 315.48 366.993 321.56 359.493 321.56H153.444C145.944 321.56 139.864 315.48 139.864 307.98C139.864 300.48 133.784 294.4 126.284 294.4H125.347C117.847 294.4 111.767 288.32 111.767 280.82V231.18C111.767 223.68 117.847 217.6 125.347 217.6H126.284C133.784 217.6 139.864 211.52 139.864 204.02C139.864 196.52 145.944 190.44 153.444 190.44H359.493C366.993 190.44 373.073 196.52 373.073 204.02C373.073 211.52 379.153 217.6 386.653 217.6C394.153 217.6 400.233 223.68 400.233 231.18V280.819C400.234 288.32 394.154 294.4 386.654 294.4Z" fill="#ACDF91"/>
<path d="M409.6 162.341V349.658H418.03C423.72 349.658 428.332 345.046 428.332 339.356V172.643C428.332 166.953 423.72 162.341 418.03 162.341H409.6Z" fill="#51BE26"/>
<path d="M256 0C114.615 0 0 114.615 0 256C0 397.385 114.615 512 256 512C397.385 512 512 397.385 512 256C512 114.615 397.385 0 256 0ZM97.056 97.056C139.512 54.601 195.959 31.22 256 31.22C310.808 31.22 362.614 50.712 403.524 86.401L86.401 403.523C50.712 362.614 31.22 310.807 31.22 256C31.22 195.959 54.601 139.511 97.056 97.056ZM414.944 414.944C372.489 457.399 316.042 480.78 256 480.78C201.192 480.78 149.386 461.288 108.477 425.598L425.599 108.476C461.288 149.386 480.78 201.192 480.78 256C480.78 316.042 457.399 372.489 414.944 414.944Z" fill="#FB636F"/>
<path d="M464.401 107.299C470.996 131.291 474.537 156.547 474.537 182.634C474.537 188.69 474.325 194.696 473.951 200.658C478.458 218.532 480.781 237.087 480.781 256C480.781 316.042 457.4 372.489 414.945 414.944C372.49 457.399 316.042 480.78 256 480.78C227.813 480.78 200.426 475.612 174.901 465.749C142.683 463.95 111.906 456.769 83.443 445.096C128.954 486.651 189.515 512 256 512C397.385 512 512 397.385 512 256C512 200.547 494.363 149.216 464.401 107.299Z" fill="#FA2A3B"/>
<path d="M340.293 263.726H317.399C313.131 263.726 309.673 260.267 309.673 256C309.673 251.733 313.132 248.274 317.399 248.274H340.293C344.561 248.274 348.019 251.733 348.019 256C348.019 260.267 344.56 263.726 340.293 263.726Z" fill="#51BE26"/>
<path d="M194.602 263.726H171.708C167.441 263.726 163.982 260.267 163.982 256C163.982 251.733 167.441 248.274 171.708 248.274H194.602C198.869 248.274 202.328 251.733 202.328 256C202.328 260.267 198.869 263.726 194.602 263.726Z" fill="#51BE26"/>
</g>
<defs>
<clipPath id="clip0_113_25">
<rect width="512" height="512" fill="white"/>
</clipPath>
</defs>
</svg>
