<svg width="512" height="512" viewBox="0 0 512 512" fill="none" xmlns="http://www.w3.org/2000/svg">
<g clip-path="url(#clip0_113_62)">
<path d="M425.839 86.0669C380.474 40.7008 320.158 15.7171 256.001 15.7171C191.843 15.7171 131.527 40.7008 86.1618 86.0669C40.7968 131.431 15.8121 191.747 15.8121 255.905C15.8121 320.062 40.7958 380.378 86.1608 425.742C131.526 471.108 191.842 496.092 255.999 496.092C300.547 496.092 343.234 484.031 380.357 461.48V425.261C345.508 450.92 302.496 466.103 255.999 466.103C140.096 466.103 45.8009 371.808 45.8009 255.905C45.8009 140.001 140.096 45.7059 255.999 45.7059C371.903 45.7059 466.199 140.001 466.199 255.905C466.199 283.633 460.79 310.119 450.992 334.379L474.034 356.927C488.535 325.678 496.188 291.381 496.188 255.906C496.188 191.747 471.204 131.431 425.839 86.0669Z" fill="#F9F9F9"/>
<path d="M425.839 86.0669C380.474 40.7008 320.158 15.7171 256.001 15.7171V45.7059C371.904 45.7059 466.199 140.001 466.199 255.905C466.199 283.633 460.79 310.119 450.992 334.379L474.034 356.927C488.535 325.678 496.188 291.381 496.188 255.906C496.188 191.747 471.204 131.431 425.839 86.0669Z" fill="#E2DFF4"/>
<path d="M256.001 496.092C300.548 496.092 343.235 484.031 380.358 461.48V425.261C345.509 450.92 302.497 466.103 256.001 466.103V496.092Z" fill="#E2DFF4"/>
<path d="M352.573 208.39L264.074 151.836C259.15 148.691 252.845 148.691 247.921 151.84L159.422 208.449C155.113 211.205 152.507 215.966 152.507 221.081V355.497C152.507 363.778 159.221 370.492 167.502 370.492H211.017L256.001 349.253L300.984 370.492H344.499C352.78 370.492 359.494 363.778 359.494 355.497V221.025C359.493 215.908 356.885 211.145 352.573 208.39Z" fill="#F9F9F9"/>
<path d="M352.573 208.39L264.075 151.836C261.613 150.264 258.806 149.477 256.001 149.477V349.253L300.984 370.492H344.499C352.78 370.492 359.494 363.778 359.494 355.497V221.025C359.493 215.908 356.885 211.145 352.573 208.39Z" fill="#E2DFF4"/>
<path d="M285.989 264.957H226.012C217.731 264.957 211.017 271.671 211.017 279.952V370.492H300.984V279.952C300.984 271.67 294.27 264.957 285.989 264.957Z" fill="#00429D"/>
<path d="M428.436 388.687V365.462C428.436 357.194 435.163 350.467 443.431 350.467C451.698 350.467 458.425 357.194 458.425 365.462V388.687H488.414V365.462C488.414 340.658 468.234 320.478 443.431 320.478C418.627 320.478 398.447 340.658 398.447 365.462V388.687H428.436Z" fill="#BEBCDD"/>
<path d="M496.911 384.856H389.951C381.67 384.856 374.956 391.57 374.956 399.851V443.335C374.956 481.092 405.674 511.809 443.431 511.809C481.188 511.809 511.905 481.092 511.905 443.335V399.851C511.905 391.57 505.192 384.856 496.911 384.856Z" fill="#FFB454"/>
<path d="M443.887 465.496C435.606 465.496 428.893 458.783 428.893 450.502V446.164C428.893 437.883 435.606 431.169 443.887 431.169C452.168 431.169 458.882 437.883 458.882 446.164V450.502C458.882 458.783 452.168 465.496 443.887 465.496Z" fill="#00347B"/>
<path d="M104.571 44.0286C93.3542 23.9821 77.2432 0.0850067 64.1901 0.0850067C51.091 0.0850067 34.982 23.9831 23.7732 44.0306C18.2192 53.9669 0.095993 88.1672 0.095993 111.1C0.095993 146.441 28.8483 175.194 64.1901 175.194C99.5319 175.194 128.284 146.441 128.284 111.1C128.283 88.1871 110.134 53.9699 104.571 44.0286Z" fill="#75E1F7"/>
<path d="M443.431 136.467C481.115 136.467 511.664 105.918 511.664 68.2336C511.664 30.5492 481.115 0 443.431 0C405.746 0 375.197 30.5492 375.197 68.2336C375.197 105.918 405.746 136.467 443.431 136.467Z" fill="#FFB454"/>
<path d="M344.498 225.746C336.218 225.746 329.504 219.032 329.504 210.751V175.194C329.504 166.913 336.218 160.199 344.498 160.199C352.779 160.199 359.493 166.913 359.493 175.194V210.751C359.493 219.032 352.78 225.746 344.498 225.746Z" fill="#E4336D"/>
<path d="M69.0702 512C36.1275 512 9.32651 485.199 9.32651 452.256C9.32651 437.756 14.6375 423.774 24.087 412.947V333.386C24.087 308.582 44.2665 288.402 69.0702 288.402C93.874 288.402 114.053 308.582 114.053 333.386V412.947C123.503 423.774 128.814 437.756 128.814 452.256C128.814 485.2 102.013 512 69.0702 512Z" fill="#00429D"/>
<path d="M84.0646 383.963V333.387C84.0646 325.119 77.3381 318.392 69.0702 318.392C60.8023 318.392 54.0758 325.119 54.0758 333.387V383.963H84.0646Z" fill="#F9F9F9"/>
<path d="M54.0758 380.39V419.046C54.0758 423.286 52.2805 427.328 49.1347 430.172C42.894 435.81 39.3153 443.859 39.3153 452.257C39.3153 468.664 52.6633 482.012 69.0702 482.012C85.4771 482.012 98.8251 468.664 98.8251 452.257C98.8251 443.86 95.2465 435.81 89.0058 430.172C85.86 427.328 84.0646 423.286 84.0646 419.046V380.39H54.0758Z" fill="#FD5E81"/>
<path d="M403.265 122.954V142.525C403.265 164.672 421.283 182.691 443.431 182.691C465.578 182.691 483.597 164.673 483.597 142.525V122.954H403.265Z" fill="#00347B"/>
<path d="M364.18 245.708C361.251 245.708 358.292 244.854 355.697 243.067L256.001 174.509L156.304 243.067C149.481 247.76 140.146 246.033 135.452 239.209C130.76 232.385 132.489 223.05 139.311 218.359L247.505 143.957C252.623 140.438 259.379 140.438 264.497 143.957L372.691 218.359C379.514 223.05 381.242 232.385 376.55 239.209C373.642 243.436 368.95 245.708 364.18 245.708Z" fill="#FFD321"/>
<path d="M285.989 264.957H256.001V370.492H300.984V279.952C300.984 271.67 294.27 264.957 285.989 264.957Z" fill="#00347B"/>
<path d="M372.69 218.358L264.496 143.956C261.937 142.196 258.968 141.316 255.999 141.316V174.509L355.696 243.067C358.292 244.853 361.251 245.708 364.179 245.708C368.949 245.708 373.64 243.437 376.548 239.209C381.241 232.385 379.513 223.05 372.69 218.358Z" fill="#FFB454"/>
</g>
<defs>
<clipPath id="clip0_113_62">
<rect width="512" height="512" fill="white"/>
</clipPath>
</defs>
</svg>
