<svg width="512" height="512" viewBox="0 0 512 512" fill="none" xmlns="http://www.w3.org/2000/svg">
<path d="M352 456V472H144V456C144.013 451.76 145.702 447.698 148.7 444.7C151.698 441.702 155.76 440.013 160 440H336C340.24 440.013 344.302 441.702 347.3 444.7C350.298 447.698 351.987 451.76 352 456Z" fill="#DEDEDE"/>
<path d="M328 408L336 440H160L168 408H328Z" fill="#969696"/>
<path d="M40 408C31.5131 408 23.3737 404.629 17.3726 398.627C11.3714 392.626 8 384.487 8 376V344H504V376C504 384.487 500.629 392.626 494.627 398.627C488.626 404.629 480.487 408 472 408H40Z" fill="#F8C940"/>
<path d="M504 40V344H8V40C8 31.5131 11.3714 23.3737 17.3726 17.3726C23.3737 11.3714 31.5131 8 40 8H472C480.487 8 488.626 11.3714 494.627 17.3726C500.629 23.3737 504 31.5131 504 40Z" fill="#F2F2F2"/>
<path d="M208.984 416H330L328 408H168L160 440H178.024C179.797 433.135 183.799 427.053 189.403 422.709C195.006 418.365 201.894 416.005 208.984 416Z" fill="#808080"/>
<path d="M169.472 440H160C155.76 440.013 151.698 441.702 148.7 444.7C145.702 447.698 144.013 451.76 144 456V472H352V456H192C187.051 455.991 182.227 454.448 178.192 451.582C174.157 448.716 171.111 444.67 169.472 440Z" fill="#B5B5B5"/>
<path d="M488 344V376C488 380.243 486.314 384.313 483.314 387.314C480.313 390.314 476.243 392 472 392H40C35.7565 392 31.6869 390.314 28.6863 387.314C25.6857 384.313 24 380.243 24 376V344H8V376C8 384.487 11.3714 392.626 17.3726 398.627C23.3737 404.629 31.5131 408 40 408H472C480.487 408 488.626 404.629 494.627 398.627C500.629 392.626 504 384.487 504 376V344H488Z" fill="#F5B43C"/>
<path d="M472 8H40C31.5131 8 23.3737 11.3714 17.3726 17.3726C11.3714 23.3737 8 31.5131 8 40V344H24V40C24 35.7565 25.6857 31.6869 28.6863 28.6863C31.6869 25.6857 35.7565 24 40 24H472C476.243 24 480.313 25.6857 483.314 28.6863C486.314 31.6869 488 35.7565 488 40V344H504V40C504 31.5131 500.629 23.3737 494.627 17.3726C488.626 11.3714 480.487 8 472 8Z" fill="#F8C940"/>
<path d="M472 24H56C56 183.2 249.216 312 488 312V40C488 35.7565 486.314 31.6869 483.314 28.6863C480.313 25.6857 476.243 24 472 24Z" fill="white"/>
<path d="M40 384C44.4183 384 48 380.418 48 376C48 371.582 44.4183 368 40 368C35.5817 368 32 371.582 32 376C32 380.418 35.5817 384 40 384Z" fill="#808080"/>
<path d="M40 376C38.6191 375.985 37.2662 375.608 36.077 374.906C34.8878 374.204 33.9039 373.202 33.224 372C32.4602 373.197 32.037 374.58 32 376C32 378.122 32.8429 380.157 34.3431 381.657C35.8434 383.157 37.8783 384 40 384C42.1217 384 44.1566 383.157 45.6569 381.657C47.1571 380.157 48 378.122 48 376C47.963 374.58 47.5398 373.197 46.776 372C46.0961 373.202 45.1122 374.204 43.923 374.906C42.7338 375.608 41.3809 375.985 40 376Z" fill="#696969"/>
<path d="M40 384C38.6191 383.985 37.2662 383.608 36.077 382.906C34.8878 382.204 33.9039 381.202 33.224 380C32.4602 381.197 32.037 382.58 32 384C32 386.122 32.8429 388.157 34.3431 389.657C35.8434 391.157 37.8783 392 40 392C42.1217 392 44.1566 391.157 45.6569 389.657C47.1571 388.157 48 386.122 48 384C47.963 382.58 47.5398 381.197 46.776 380C46.0961 381.202 45.1122 382.204 43.923 382.906C42.7338 383.608 41.3809 383.985 40 384Z" fill="#A3A3A3"/>
<path d="M104 368H72C67.5817 368 64 371.582 64 376C64 380.418 67.5817 384 72 384H104C108.418 384 112 380.418 112 376C112 371.582 108.418 368 104 368Z" fill="#808080"/>
<path d="M104 376H72C70.6193 375.985 69.2667 375.607 68.0776 374.905C66.8885 374.203 65.9045 373.201 65.224 372C64.4602 373.197 64.037 374.58 64 376C64 378.122 64.8429 380.157 66.3431 381.657C67.8434 383.157 69.8783 384 72 384H104C106.122 384 108.157 383.157 109.657 381.657C111.157 380.157 112 378.122 112 376C111.963 374.58 111.54 373.197 110.776 372C110.095 373.201 109.111 374.203 107.922 374.905C106.733 375.607 105.381 375.985 104 376Z" fill="#696969"/>
<path d="M104 384H72C70.6193 383.985 69.2667 383.607 68.0776 382.905C66.8885 382.203 65.9045 381.201 65.224 380C64.4602 381.197 64.037 382.58 64 384C64 386.122 64.8429 388.157 66.3431 389.657C67.8434 391.157 69.8783 392 72 392H104C106.122 392 108.157 391.157 109.657 389.657C111.157 388.157 112 386.122 112 384C111.963 382.58 111.54 381.197 110.776 380C110.095 381.201 109.111 382.203 107.922 382.905C106.733 383.607 105.381 383.985 104 384Z" fill="#A3A3A3"/>
<path d="M248 456H472V472C472 480.487 468.629 488.626 462.627 494.627C456.626 500.629 448.487 504 440 504H280C271.513 504 263.374 500.629 257.373 494.627C251.371 488.626 248 480.487 248 472V456Z" fill="#5ACAFA"/>
<path d="M472 152V160H416C416 160 416 184 400 184H320C304 184 304 160 304 160H248V152C248 143.513 251.371 135.374 257.373 129.373C263.374 123.371 271.513 120 280 120H440C448.487 120 456.626 123.371 462.627 129.373C468.629 135.374 472 143.513 472 152Z" fill="#5ACAFA"/>
<path d="M472 160V456H248V160H304C304 160 304 184 320 184H400C416 184 416 160 416 160H472Z" fill="#DEDEDE"/>
<path d="M320 184H400C416 184 416 160 416 160H304C304 160 304 184 320 184Z" fill="#5ACAFA"/>
<path d="M440 488H280C271.513 488 263.374 484.629 257.373 478.627C251.371 472.626 248 464.487 248 456V472C248 480.487 251.371 488.626 257.373 494.627C263.374 500.629 271.513 504 280 504H440C448.487 504 456.626 500.629 462.627 494.627C468.629 488.626 472 480.487 472 472V456C472 464.487 468.629 472.626 462.627 478.627C456.626 484.629 448.487 488 440 488Z" fill="#1C99EB"/>
<path d="M416 160C416 160 416 184 400 184H320C304 184 304 160 304 160H280C280 292.656 365.872 400 472 400V160H416Z" fill="#F2F2F2"/>
<path d="M280 136H440C447.079 136.01 453.954 138.373 459.543 142.718C465.131 147.062 469.117 153.142 470.872 160H472V152C472 143.513 468.629 135.374 462.627 129.373C456.626 123.371 448.487 120 440 120H280C271.513 120 263.374 123.371 257.373 129.373C251.371 135.374 248 143.513 248 152V160H249.128C250.883 153.142 254.869 147.062 260.457 142.718C266.046 138.373 272.921 136.01 280 136Z" fill="#1C99EB"/>
<path d="M360 392C404.183 392 440 356.183 440 312C440 267.817 404.183 232 360 232C315.817 232 280 267.817 280 312C280 356.183 315.817 392 360 392Z" fill="#00AAFF"/>
<path d="M304 320L344 360L416 288L392 264L344 312L328 296L304 320Z" fill="#F2F2F2"/>
<path d="M216 144V112H198.152C196.353 104.103 193.226 96.5697 188.904 89.72L201.536 77.088L178.912 54.464L166.28 67.096C159.43 62.7745 151.897 59.6474 144 57.848V40H112V57.848C104.103 59.6474 96.5697 62.7745 89.72 67.096L77.088 54.464L54.464 77.088L67.096 89.72C62.7745 96.5697 59.6474 104.103 57.848 112H40V144H57.848C59.6474 151.897 62.7745 159.43 67.096 166.28L54.464 178.912L77.088 201.536L89.72 188.904C96.5697 193.226 104.103 196.353 112 198.152V216H144V198.152C151.897 196.353 159.43 193.226 166.28 188.904L178.912 201.536L201.536 178.912L188.904 166.28C193.226 159.43 196.353 151.897 198.152 144H216Z" fill="#939393"/>
<path d="M128 160C145.673 160 160 145.673 160 128C160 110.327 145.673 96 128 96C110.327 96 96 110.327 96 128C96 145.673 110.327 160 128 160Z" fill="white"/>
<path d="M128 88C120.089 88 112.355 90.346 105.777 94.7412C99.1992 99.1365 94.0723 105.384 91.0448 112.693C88.0173 120.002 87.2252 128.044 88.7686 135.804C90.312 143.563 94.1217 150.69 99.7158 156.284C105.31 161.878 112.437 165.688 120.196 167.231C127.956 168.775 135.998 167.983 143.307 164.955C150.616 161.928 156.864 156.801 161.259 150.223C165.654 143.645 168 135.911 168 128C168 117.391 163.786 107.217 156.284 99.7157C148.783 92.2143 138.609 88 128 88ZM128 160C121.671 160 115.484 158.123 110.222 154.607C104.959 151.091 100.858 146.093 98.4359 140.246C96.0139 134.399 95.3802 127.965 96.6149 121.757C97.8496 115.55 100.897 109.848 105.373 105.373C109.848 100.897 115.55 97.8496 121.757 96.6149C127.965 95.3801 134.399 96.0138 140.246 98.4359C146.093 100.858 151.091 104.959 154.607 110.222C158.123 115.484 160 121.671 160 128C160 136.487 156.629 144.626 150.627 150.627C144.626 156.629 136.487 160 128 160Z" fill="#696969"/>
<path d="M216 144V112H198.152C196.353 104.103 193.226 96.5697 188.904 89.72L201.536 77.088L178.912 54.464L166.28 67.096C159.43 62.7745 151.897 59.6474 144 57.848V40H112V57.848C104.103 59.6474 96.5697 62.7745 89.72 67.096L77.088 54.464L54.464 77.088L67.096 89.72C62.7745 96.5697 59.6474 104.103 57.848 112H40V144H57.848C59.6474 151.897 62.7745 159.43 67.096 166.28L54.464 178.912L77.088 201.536L89.72 188.904C96.5697 193.226 104.103 196.353 112 198.152V216H144V198.152C151.897 196.353 159.43 193.226 166.28 188.904L178.912 201.536L201.536 178.912L188.904 166.28C193.226 159.43 196.353 151.897 198.152 144H216ZM188.168 169.656L169.656 188.168L159.32 177.832C153.714 181.367 147.549 183.926 141.088 185.4V200H114.912V185.4C108.451 183.926 102.286 181.367 96.68 177.832L86.344 188.168L67.832 169.656L78.168 159.32C74.633 153.714 72.0741 147.549 70.6 141.088H56V114.912H70.6C72.0741 108.451 74.633 102.286 78.168 96.68L67.832 86.344L86.344 67.832L96.68 78.168C102.286 74.633 108.451 72.0741 114.912 70.6V56H141.088V70.6C147.549 72.0741 153.714 74.633 159.32 78.168L169.656 67.832L188.168 86.344L177.832 96.68C181.367 102.286 183.926 108.451 185.4 114.912H200V141.088H185.4C183.926 147.549 181.367 153.714 177.832 159.32L188.168 169.656Z" fill="#B5B5B5"/>
<path d="M184 312C184 303.513 187.371 295.374 193.373 289.373C199.374 283.371 207.513 280 216 280C224.487 280 232.626 283.371 238.627 289.373C244.629 295.374 248 303.513 248 312V247.608C242.916 245.055 237.544 243.121 232 241.848V224H200V241.848C192.103 243.647 184.57 246.774 177.72 251.096L165.088 238.464L142.464 261.088L155.096 273.72C150.774 280.57 147.647 288.103 145.848 296H128V328H145.848C147.121 333.544 149.055 338.916 151.608 344H216C207.513 344 199.374 340.629 193.373 334.627C187.371 328.626 184 320.487 184 312Z" fill="#8E8D92"/>
<path d="M216 344H248V312C248 320.487 244.629 328.626 238.627 334.627C232.626 340.629 224.487 344 216 344Z" fill="#8E8D92"/>
<path d="M432 32H344C339.582 32 336 35.5817 336 40C336 44.4183 339.582 48 344 48H432C436.418 48 440 44.4183 440 40C440 35.5817 436.418 32 432 32Z" fill="#939393"/>
<path d="M464 32H456C451.582 32 448 35.5817 448 40C448 44.4183 451.582 48 456 48H464C468.418 48 472 44.4183 472 40C472 35.5817 468.418 32 464 32Z" fill="#939393"/>
<path d="M362.904 341.096L344 360L304 320L316.8 307.24C306.597 291.608 302.299 272.851 304.68 254.336C295.431 263.204 288.449 274.164 284.322 286.295C280.195 298.425 279.043 311.369 280.963 324.037C282.884 336.706 287.821 348.727 295.358 359.089C302.896 369.45 312.813 377.849 324.274 383.577C335.736 389.305 348.406 392.195 361.218 392.003C374.029 391.811 386.607 388.543 397.892 382.474C409.177 376.405 418.838 367.713 426.061 357.131C433.285 346.548 437.86 334.384 439.4 321.664C429.457 331.289 417.17 338.146 403.758 341.555C390.346 344.964 376.276 344.806 362.944 341.096H362.904Z" fill="#007AFF"/>
<path d="M344 360L362.904 341.096C343.891 335.873 327.475 323.817 316.8 307.24L304 320L344 360Z" fill="#DEDEDE"/>
<path d="M384 472H336C331.582 472 328 475.582 328 480C328 484.418 331.582 488 336 488H384C388.418 488 392 484.418 392 480C392 475.582 388.418 472 384 472Z" fill="#454545"/>
<path d="M384 488H336C334.619 487.985 333.267 487.607 332.078 486.905C330.889 486.203 329.905 485.201 329.224 484C328.46 485.197 328.037 486.58 328 488C328 490.122 328.843 492.157 330.343 493.657C331.843 495.157 333.878 496 336 496H384C386.122 496 388.157 495.157 389.657 493.657C391.157 492.157 392 490.122 392 488C391.963 486.58 391.54 485.197 390.776 484C390.095 485.201 389.111 486.203 387.922 486.905C386.733 487.607 385.381 487.985 384 488Z" fill="#177BBD"/>
<path d="M384 144H336C331.582 144 328 147.582 328 152C328 156.418 331.582 160 336 160H384C388.418 160 392 156.418 392 152C392 147.582 388.418 144 384 144Z" fill="#454545"/>
<path d="M384 160H336C334.619 159.985 333.267 159.607 332.078 158.905C330.889 158.203 329.905 157.201 329.224 156C328.46 157.197 328.037 158.58 328 160C328 162.122 328.843 164.157 330.343 165.657C331.843 167.157 333.878 168 336 168H384C386.122 168 388.157 167.157 389.657 165.657C391.157 164.157 392 162.122 392 160C391.963 158.58 391.54 157.197 390.776 156C390.095 157.201 389.111 158.203 387.922 158.905C386.733 159.607 385.381 159.985 384 160Z" fill="#1A8FDB"/>
<path d="M384 152H336C334.619 151.985 333.267 151.607 332.078 150.905C330.889 150.203 329.905 149.201 329.224 148C328.46 149.197 328.037 150.58 328 152C328 154.122 328.843 156.157 330.343 157.657C331.843 159.157 333.878 160 336 160H384C386.122 160 388.157 159.157 389.657 157.657C391.157 156.157 392 154.122 392 152C391.963 150.58 391.54 149.197 390.776 148C390.095 149.201 389.111 150.203 387.922 150.905C386.733 151.607 385.381 151.985 384 152Z" fill="#333333"/>
<path d="M384 480H336C334.619 479.985 333.267 479.607 332.078 478.905C330.889 478.203 329.905 477.201 329.224 476C328.46 477.197 328.037 478.58 328 480C328 482.122 328.843 484.157 330.343 485.657C331.843 487.157 333.878 488 336 488H384C386.122 488 388.157 487.157 389.657 485.657C391.157 484.157 392 482.122 392 480C391.963 478.58 391.54 477.197 390.776 476C390.095 477.201 389.111 478.203 387.922 478.905C386.733 479.607 385.381 479.985 384 480Z" fill="#333333"/>
<path d="M216 440H248V456H216V440Z" fill="#B5B5B5"/>
<path d="M216 416H248V440H216V416Z" fill="#706F73"/>
<path d="M216 344H248V392H216V344Z" fill="#706F73"/>
<path d="M216 408H248V416H216V408Z" fill="#454547"/>
<path d="M216 456H248V472H216V456Z" fill="#808080"/>
<path d="M216 392H248V408H216V392Z" fill="#5C5B5E"/>
<path d="M232 241.848C237.544 243.121 242.916 245.055 248 247.608V152C248.03 146.368 249.56 140.845 252.432 136H248C239.513 136 231.374 139.371 225.373 145.373C219.371 151.374 216 159.513 216 168V224H232V241.848Z" fill="#F2F2F2"/>
<path d="M248 312C248 303.513 244.629 295.374 238.627 289.373C232.626 283.371 224.487 280 216 280V344C224.487 344 232.626 340.629 238.627 334.627C244.629 328.626 248 320.487 248 312Z" fill="#CFCFCF"/>
<path d="M216 247.784V280C224.487 280 232.626 283.371 238.627 289.373C244.629 295.374 248 303.513 248 312V263.544C236.955 258.616 226.288 253.363 216 247.784Z" fill="#5C5B5E"/>
<path d="M248 263.544V247.608C242.916 245.055 237.544 243.121 232 241.848V224H216V247.784C226.299 253.347 236.965 258.6 248 263.544Z" fill="#706F73"/>
<path d="M248 312C248 320.487 244.629 328.626 238.627 334.627C232.626 340.629 224.487 344 216 344H248V312Z" fill="#666569"/>
</svg>
