<svg width="547" height="547" viewBox="0 0 547 547" fill="none" xmlns="http://www.w3.org/2000/svg">
<path fill-rule="evenodd" clip-rule="evenodd" d="M452.768 93.2525C242.534 -110.893 -87.2739 141.651 55.6135 397.631C55.608 397.631 19.8123 528.342 19.8123 528.342L153.581 493.268C409.506 628.58 654.513 300.658 452.768 93.2525Z" fill="#F1F1F1"/>
<path fill-rule="evenodd" clip-rule="evenodd" d="M274.282 485.435C232.748 485.583 192.374 473.111 157.552 451.001L76.6182 472.22L98.2248 393.337C73.9489 357.361 60.2575 315.165 60.4435 271.492C60.0606 82.5094 292.508 -13.8447 425.544 120.438C559.647 253.578 463.32 485.851 274.282 485.435Z" fill="#66E066"/>
<path fill-rule="evenodd" clip-rule="evenodd" d="M391.57 325.334C385.143 322.117 353.537 306.566 347.646 304.422C341.755 302.278 337.466 301.205 333.183 307.644C328.895 314.076 316.587 328.55 312.835 332.833C309.088 337.127 305.335 337.663 298.908 334.447C285.02 336.301 213.773 276.049 211.454 258.031C207.707 251.603 211.054 248.119 214.276 244.914C219.872 238.771 226.956 231.047 230.342 222.935C232.486 218.641 231.414 214.889 229.806 211.672C228.197 208.456 215.704 176.664 209.988 163.958C205.174 153.253 200.103 153.04 195.525 152.848C184.678 153.018 176.282 150.201 166.064 160.741C127.752 197.615 145.321 249.432 169.811 280.835C173.022 285.124 214.282 352.098 279.621 377.862C333.922 399.277 344.971 395.016 356.759 393.944C368.547 392.872 394.792 378.398 400.147 363.388C405.502 348.379 405.502 335.513 403.899 332.827C402.286 330.158 397.997 328.55 391.57 325.334Z" fill="#F1F1F1"/>
</svg>
