<svg width="512" height="512" viewBox="0 0 512 512" fill="none" xmlns="http://www.w3.org/2000/svg">
<g clip-path="url(#clip0_113_120)">
<path d="M283.366 425.586L289.861 426.962L282.351 429.092C278.395 430.215 275.374 433.418 274.487 437.432L273.094 443.729L271.701 437.432C270.813 433.417 267.794 430.214 263.838 429.092L256.327 426.962L262.822 425.586C267.028 424.694 270.349 421.471 271.366 417.295L273.095 410.195L274.825 417.295C275.84 421.472 279.161 424.695 283.366 425.586Z" fill="#AD9CDB"/>
<path d="M473.679 456.805C478.721 456.805 482.808 452.717 482.808 447.675C482.808 442.633 478.721 438.546 473.679 438.546C468.637 438.546 464.549 442.633 464.549 447.675C464.549 452.717 468.637 456.805 473.679 456.805Z" fill="#FF8A80"/>
<path d="M86.0619 224.941L92.5571 226.317L85.0467 228.447C81.0907 229.57 78.0702 232.773 77.1829 236.787L75.7902 243.084L74.3975 236.787C73.5092 232.772 70.4886 229.569 66.5337 228.447L59.0233 226.317L65.5185 224.941C69.7239 224.049 73.0453 220.826 74.0617 216.65L75.7913 209.55L77.521 216.65C78.5351 220.826 81.8565 224.05 86.0619 224.941Z" fill="#FF8A80"/>
<path d="M457.254 123.028C452.069 122.863 448.676 129.335 451.984 133.621C454.275 136.904 455.628 140.897 455.628 145.216C455.628 157.133 445.402 166.645 433.306 165.335C424.152 164.342 416.716 156.953 415.595 147.748C414.997 142.827 416.173 138.219 418.543 134.446C421.35 129.986 418.75 122.904 413.027 123.029L375.102 123.028L375.101 161.223C375.225 166.989 368.196 169.607 363.766 166.779C360.019 164.391 355.445 163.206 350.56 163.809C341.421 164.937 334.085 172.428 333.101 181.65C331.8 193.834 341.243 204.134 353.074 204.134C357.361 204.134 361.325 202.772 364.584 200.464C368.84 197.133 375.265 200.55 375.101 205.773V245.924H497.116V123.028H457.254Z" fill="#58ED9B"/>
<path d="M474.761 123.028V145.318C474.761 188.533 439.728 223.567 396.512 223.567H375.102V245.923H497.117V123.028H474.761Z" fill="#24D1AF"/>
<path d="M375.108 0.126883V40.2784C374.944 45.5012 381.37 48.919 385.625 45.5866C388.884 43.2793 392.848 41.9172 397.135 41.9172C408.967 41.9172 418.409 52.2174 417.108 64.4015C416.124 73.623 408.787 81.1126 399.649 82.2416C394.763 82.8444 390.189 81.6596 386.443 79.2725C382.014 76.4455 374.984 79.0635 375.108 84.8279L375.107 123.027L413.027 123.028C418.75 122.903 421.349 129.983 418.543 134.445C416.173 138.219 414.996 142.826 415.595 147.747C416.716 156.952 424.152 164.341 433.306 165.333C445.402 166.644 455.628 157.133 455.628 145.214C455.628 140.896 454.275 136.903 451.984 133.62C448.676 129.334 452.069 122.861 457.254 123.027H497.117V0.124695H375.108V0.126883Z" fill="#9595FC"/>
<path d="M497.117 0.126892H375.108V22.4831H396.512C439.728 22.4831 474.761 57.5158 474.761 100.732V123.028H497.117V0.126892Z" fill="#7676FF"/>
<path d="M375.242 84.701C375.119 78.9355 382.148 76.3175 386.578 79.1456C390.325 81.5327 394.898 82.7186 399.783 82.1147C408.923 80.9868 416.258 73.4961 417.243 64.2746C418.544 52.0905 409.101 41.7904 397.269 41.7904C392.983 41.7904 389.018 43.1524 385.759 45.4597C381.503 48.791 375.078 45.3744 375.242 40.1515V0H253.228V122.895H293.09C298.276 123.061 301.669 116.588 298.36 112.302C296.069 109.019 294.717 105.026 294.717 100.708C294.717 88.7904 304.943 79.278 317.039 80.5886C326.193 81.5809 333.629 88.9698 334.75 98.1749C335.348 103.096 334.172 107.703 331.802 111.477C328.995 115.938 331.594 123.019 337.318 122.894L375.241 122.895L375.242 84.701Z" fill="#58ED9B"/>
<path d="M375.242 22.3562V0H253.228V122.895H275.584V100.605C275.584 57.3889 310.617 22.3562 353.832 22.3562H375.242Z" fill="#24D1AF"/>
<path d="M164.563 344.41L190.395 282.264L228.7 298.791L217.797 325.518C211.449 341.076 206.32 357.087 202.033 373.333C201.575 375.072 201.235 376.84 200.941 378.613C194.962 414.73 174.279 436.743 164.138 445.61C159.875 449.336 156.244 453.727 153.293 458.558L143.205 475.069L69.7086 443.891L77.8776 414.422C79.313 409.246 79.9946 403.888 79.9005 398.517L78.9082 341.672C78.6774 328.448 83.1442 315.569 91.5146 305.328L146.024 238.63C153.051 230.032 163.878 225.47 174.939 226.446L180.721 226.956" fill="#FFC7B3"/>
<path d="M99.1169 420.014C100.552 414.837 101.234 409.48 101.14 404.108L100.147 347.264C99.9166 334.039 104.383 321.161 112.754 310.92L167.263 244.222C170.642 240.089 174.904 236.9 179.643 234.798L180.722 226.959L174.94 226.449C163.879 225.474 153.052 230.036 146.025 238.634L91.5146 305.329C83.1442 315.57 78.6774 328.449 78.9082 341.674L79.9005 398.518C79.9946 403.889 79.313 409.247 77.8776 414.425L69.7086 443.893L143.205 475.071L144.864 472.355L90.9479 449.482L99.1169 420.014Z" fill="#F9AD95"/>
<path d="M134.152 511.094L50.6552 475.337C45.0057 472.918 42.3691 466.391 44.7519 460.727L53.0117 441.095C55.4164 435.378 62.0155 432.712 67.7153 435.154L151.212 470.911C156.861 473.331 159.498 479.857 157.115 485.521L148.855 505.154C146.451 510.87 139.853 513.536 134.152 511.094Z" fill="#FF6699"/>
<path d="M73.8494 437.78L67.7175 435.154C62.0165 432.712 55.4185 435.378 53.0139 441.095L44.754 460.727C42.3702 466.391 45.0079 472.918 50.6574 475.337L134.154 511.095C139.855 513.536 146.453 510.871 148.859 505.155L150.699 500.781L92.5921 475.897C77.591 469.473 69.8749 453.125 73.8494 437.78Z" fill="#F92174"/>
<path d="M274.702 267.176C271.443 269.484 267.478 270.846 263.192 270.846C251.36 270.846 241.918 260.546 243.219 248.362C244.203 239.14 251.54 231.65 260.678 230.521C265.564 229.919 270.138 231.103 273.884 233.491C278.312 236.317 285.343 233.7 285.219 227.935L285.22 189.738L247.3 189.734C241.576 189.859 238.978 182.778 241.784 178.317C244.154 174.543 245.331 169.936 244.732 165.015C243.611 155.81 236.175 148.42 227.021 147.429C214.925 146.118 204.699 155.629 204.699 167.548C204.699 171.866 206.052 175.859 208.342 179.142C211.651 183.428 208.258 189.901 203.073 189.735H174.388C168.215 189.735 163.21 194.74 163.21 200.914V301.459C163.21 307.632 168.215 312.637 174.388 312.637H285.219V272.486C285.382 267.262 278.957 263.844 274.702 267.176Z" fill="#9595FC"/>
<path d="M185.566 212.031V189.735H174.387C168.214 189.735 163.209 194.74 163.209 200.914V301.459C163.209 307.632 168.214 312.637 174.387 312.637H285.218V290.281H263.813C220.599 290.28 185.566 255.247 185.566 212.031Z" fill="#7676FF"/>
<path d="M164.563 344.41L182.255 301.847C186.732 291.074 199.155 286.044 209.868 290.665C220.329 295.179 225.256 307.233 220.952 317.782L217.796 325.518C211.1 341.929 205.759 358.842 201.336 376.005" fill="#FFC7B3"/>
<path d="M391.265 367.05C389.35 367.05 387.489 366.042 386.487 364.25L372.282 338.862C370.806 336.225 371.748 332.893 374.385 331.417C377.021 329.941 380.355 330.883 381.829 333.52L396.034 358.908C398.128 362.419 395.308 367.149 391.265 367.05Z" fill="#C7CFE1"/>
<path d="M427.157 330.324C426.218 330.324 425.266 330.081 424.398 329.573L399.585 315.035C396.978 313.508 396.103 310.157 397.63 307.55C399.158 304.942 402.506 304.068 405.115 305.595L429.927 320.132C434.742 322.733 432.51 330.528 427.157 330.324Z" fill="#C7CFE1"/>
<path d="M342.478 380.751C342.465 380.751 342.451 380.751 342.438 380.751C339.417 380.729 336.986 378.263 337.007 375.242L337.214 345.806C337.236 342.798 339.68 340.374 342.683 340.374H342.723C345.744 340.396 348.175 342.862 348.155 345.882L347.947 375.319C347.925 378.326 345.481 380.751 342.478 380.751Z" fill="#C7CFE1"/>
<path d="M171.167 66.5206L164.298 45.3831C162.401 39.5466 156.133 36.352 150.295 38.248L133.469 43.7148C128.484 38.2195 122.379 33.7647 115.525 30.6795V12.9849C115.525 6.84748 110.549 1.87189 104.412 1.87189H82.1848C76.0473 1.87189 71.0717 6.84748 71.0717 12.9849V30.6795C64.2177 33.7647 58.1131 38.2195 53.1277 43.7148L36.3017 38.248C30.4651 36.3509 24.1953 39.5455 22.2983 45.3831L15.43 66.5206C13.533 72.3572 16.7275 78.627 22.5652 80.5241L39.3934 85.992C40.2117 93.6074 42.612 100.744 46.2496 107.081L35.8466 121.4C32.2385 126.366 33.3402 133.315 38.3048 136.923L56.2861 149.986C61.2519 153.593 68.201 152.493 71.8091 147.528L82.2034 133.222C85.7852 133.967 89.4961 134.362 93.2989 134.362C97.1017 134.362 100.813 133.967 104.394 133.222L114.789 147.528C118.397 152.494 125.346 153.595 130.311 149.986L148.292 136.923C153.258 133.315 154.358 126.366 150.75 121.4L140.347 107.081C143.985 100.744 146.386 93.6063 147.203 85.992L164.031 80.5241C169.869 78.627 173.063 72.3583 171.167 66.5206Z" fill="#FFB53B"/>
<path d="M93.2978 104.985C107.021 104.985 118.146 93.8602 118.146 80.1368C118.146 66.4134 107.021 55.2884 93.2978 55.2884C79.5744 55.2884 68.4494 66.4134 68.4494 80.1368C68.4494 93.8602 79.5744 104.985 93.2978 104.985Z" fill="white"/>
<path d="M90.8067 68.9581C90.8067 63.93 92.3044 59.2542 94.8721 55.3431C94.3514 55.3103 93.8273 55.2884 93.2978 55.2884C79.5745 55.2884 68.4494 66.4135 68.4494 80.1368C68.4494 93.8602 79.5745 104.985 93.2978 104.985C101.993 104.985 109.64 100.515 114.081 93.7518C101.092 92.939 90.8067 82.1531 90.8067 68.9581Z" fill="#DFE7F4"/>
</g>
<defs>
<clipPath id="clip0_113_120">
<rect width="512" height="512" fill="white"/>
</clipPath>
</defs>
</svg>
